/* XPM */
static char *ce5eaea37c6f4e85880e7afa4ab4f554CYwCnnArRjgD72Ib[] = {
/* columns rows colors chars-per-pixel */
"32 32 23 1 ",
"  c black",
". c gray2",
"X c #080607",
"o c #090708",
"O c #0B090A",
"+ c #0C0A0B",
"@ c #0D0B0C",
"# c #0E0C0D",
"$ c #100E0F",
"% c #110F10",
"& c #131112",
"* c #141213",
"= c #151314",
"- c #171516",
"; c #181617",
": c #191718",
"> c #1A1819",
", c #1C1A1B",
"< c #1D1B1C",
"1 c #1F1D1E",
"2 c #201E1F",
"3 c #201F20",
"4 c #222021",
/* pixels */
"OOo -*%#+Ooo;*% + oO-=&$#OoX%=&$",
"Oo O&#@OOooo&## OOOo&$ +o oo#$#+",
"-& #42,:>*&#11< -*&&43 >- &$:2<,",
"&###<>;-*$#@2>:-*%# 1>:-*& @=>>-",
"#+Oo;=* #+Oo:- &#+ o;-*&$@Oo&;=&",
"OooO*%#@OOoX&&$@OOX =&%@OOoo%&&#",
"oooo#@OoXoOo$@O oooX##OOoooo# +O",
"-*%#1<,;-&$#21, -&&#3<,:-*&#: ,:",
" #+ >; *%#+O>  *%#@O>:-*&#+O*>-=",
"@Oo -* $@OoO==& @OoO; &%#OOo*=*%",
"ooo  #@OOo o&$#OoOoo&$#+Oooo#% +",
"###..&%$$#.@=$&$$#@@:-&%$##O&=.%",
"&%#@<>:-*&#+1 :-=&#+1>:--&$ -,>-",
"#+oo:-*&$+OO:-=&$ OO>:=&$#Oo ;-&",
"Oooo &##OOoo=&$@OOOo=&$#OOoo#& #",
"Oooo$#OOOooo #O oooo$# OoooO##+O",
"-=%#21>:-=&# <1 -*%$3< >;*&$>1,>",
"%#@+>>-=&#@O > =&$@O>:;-&$#O=::-",
"+O X=*&# O o- & @+Oo -&$#OOo$-*$",
"oooo&% Oo  o&%#+ooXo&%#+Oooo#%#+",
".ooO +ooXXoO%+OXooo @+Oooo X@@O ",
"*%## <:-*&$@1>>-=&# 1>>-=& @;>> ",
"$+ O>-* #+   -*&$#OO>-=&%#+o&;-&",
"OOXo*&## OXo=&$# ooo=*% +oOo%*&#",
"X oo$#OOO oX%# O  oo&#@OoXooO# O",
"- ##31>:- *$41 ;  &#3<,>;*=$*1 :",
" $ O:--*&$@O,>-=&$#O,>-*&$ O*>;=",
"@Ooo-=&$@Ooo;=&$#+oO;-*%#+OX&-*%",
"Oooo&%# Oooo*%#+oo o*&#@ ooo#%##",
"XoXo O O OO & OOXOOo@@OX..Oo#@OO",
"&&## , - %$ 1 >-=&$@1,>--&%#-1>;",
"#@ O: =&$#Oo: =&$#OO>;- %#Oo*--&"
};
