/* XPM */
static char * colect1_xpm[] = {
"32 32 383 2",
"  	c #0B090A",
". 	c #0A0809",
"+ 	c #090708",
"@ 	c #000000",
"# 	c #161415",
"$ 	c #141213",
"% 	c #202020",
"& 	c #0E0C0D",
"* 	c #0C0A0B",
"= 	c #181617",
"- 	c #141113",
"; 	c #110F10",
"> 	c #151314",
", 	c #121011",
"' 	c #100E0F",
") 	c #0A080A",
"! 	c #080607",
"~ 	c #131112",
"{ 	c #010000",
"] 	c #1D1D1D",
"^ 	c #0F0D0E",
"/ 	c #0D0B0C",
"( 	c #090909",
"_ 	c #080808",
": 	c #171516",
"< 	c #212121",
"[ 	c #020001",
"} 	c #2B2A2A",
"| 	c #201E1F",
"1 	c #1C1A1B",
"2 	c #191718",
"3 	c #1A1819",
"4 	c #1E1C1D",
"5 	c #1F1D1E",
"6 	c #1D1B1C",
"7 	c #222122",
"8 	c #121212",
"9 	c #101010",
"0 	c #2A292A",
"a 	c #030102",
"b 	c #1B191A",
"c 	c #212021",
"d 	c #262425",
"e 	c #010101",
"f 	c #111010",
"g 	c #232122",
"h 	c #39160B",
"i 	c #39150B",
"j 	c #EC9410",
"k 	c #EC9310",
"l 	c #EB940E",
"m 	c #EC930F",
"n 	c #EC940E",
"o 	c #AE5407",
"p 	c #3A150B",
"q 	c #38160C",
"r 	c #0A0808",
"s 	c #EC9510",
"t 	c #EA930F",
"u 	c #FDF34D",
"v 	c #FCF34C",
"w 	c #FDF54D",
"x 	c #FCF44E",
"y 	c #F9B601",
"z 	c #F9B000",
"A 	c #9F4907",
"B 	c #9B4707",
"C 	c #0E0C0E",
"D 	c #38150B",
"E 	c #EB9410",
"F 	c #00493D",
"G 	c #005040",
"H 	c #00E15A",
"I 	c #00E05C",
"J 	c #00B65A",
"K 	c #00A059",
"L 	c #019F5A",
"M 	c #004151",
"N 	c #FBB100",
"O 	c #994506",
"P 	c #EB9510",
"Q 	c #FBF752",
"R 	c #73FD37",
"S 	c #00CB5E",
"T 	c #00E25B",
"U 	c #00E15B",
"V 	c #00E45A",
"W 	c #00B65B",
"X 	c #009F5B",
"Y 	c #006660",
"Z 	c #009176",
"` 	c #005357",
" .	c #EC8000",
"..	c #C76405",
"+.	c #1A1A1A",
"@.	c #201F20",
"#.	c #3A160B",
"$.	c #004D21",
"%.	c #49F956",
"&.	c #E3FF49",
"*.	c #E2FF42",
"=.	c #00E55A",
"-.	c #00B35A",
";.	c #00B45B",
">.	c #005E5B",
",.	c #00A760",
"'.	c #006F66",
").	c #008C77",
"!.	c #004258",
"~.	c #EE8900",
"{.	c #3A160C",
"].	c #1A191A",
"^.	c #39160C",
"/.	c #008946",
"(.	c #F6FF40",
"_.	c #E1FF44",
":.	c #DFFF46",
"<.	c #4CF549",
"[.	c #00D459",
"}.	c #00D859",
"|.	c #00CE5A",
"1.	c #00AF60",
"2.	c #007067",
"3.	c #007069",
"4.	c #00545A",
"5.	c #F8A900",
"6.	c #B65A06",
"7.	c #38150C",
"8.	c #050505",
"9.	c #060405",
"0.	c #ED950D",
"a.	c #FEF64C",
"b.	c #489216",
"c.	c #F2FE13",
"d.	c #ECFF20",
"e.	c #E0FF36",
"f.	c #FEFF8F",
"g.	c #5DFF47",
"h.	c #1AF0F5",
"i.	c #16DFD7",
"j.	c #006B6D",
"k.	c #00B274",
"l.	c #00706A",
"m.	c #0067AB",
"n.	c #034546",
"o.	c #B85C06",
"p.	c #904106",
"q.	c #070506",
"r.	c #181718",
"s.	c #EB950D",
"t.	c #FFF34A",
"u.	c #9506E9",
"v.	c #15B439",
"w.	c #EEFE19",
"x.	c #02BB44",
"y.	c #D4F154",
"z.	c #D6F04C",
"A.	c #00F0BF",
"B.	c #00B1A8",
"C.	c #00A8C6",
"D.	c #007280",
"E.	c #007068",
"F.	c #00706C",
"G.	c #0067AE",
"H.	c #064445",
"I.	c #EA930E",
"J.	c #924006",
"K.	c #191818",
"L.	c #F9AD00",
"M.	c #FCD700",
"N.	c #9607EA",
"O.	c #9A09EC",
"P.	c #58179B",
"Q.	c #FEFE8A",
"R.	c #18F5EF",
"S.	c #00F2C0",
"T.	c #0AE2FE",
"U.	c #0083B7",
"V.	c #007A99",
"W.	c #00749B",
"X.	c #007CAA",
"Y.	c #006AAD",
"Z.	c #0066B0",
"`.	c #044445",
" +	c #020303",
".+	c #111111",
"++	c #F8AC00",
"@+	c #FDD400",
"#+	c #9707EB",
"$+	c #9B09EC",
"%+	c #6D0AC0",
"&+	c #D9F889",
"*+	c #2BE6F3",
"=+	c #09DCFF",
"-+	c #0081B9",
";+	c #007599",
">+	c #0081C9",
",+	c #0069AF",
"'+	c #054344",
")+	c #EA940E",
"!+	c #FEF548",
"~+	c #9808EB",
"{+	c #9C0AEC",
"]+	c #6E0CC3",
"^+	c #D9F88B",
"/+	c #2BE6F4",
"(+	c #0ADCFF",
"_+	c #00A2FE",
":+	c #006CCA",
"<+	c #007EBD",
"[+	c #007FBB",
"}+	c #0080CA",
"|+	c #0068B0",
"1+	c #0B41B9",
"2+	c #054444",
"3+	c #EB940F",
"4+	c #EB950E",
"5+	c #FFF54D",
"6+	c #9908EB",
"7+	c #B416F9",
"8+	c #6F0AC4",
"9+	c #FF8FFE",
"0+	c #2CE5F3",
"a+	c #09DBFE",
"b+	c #00A0FE",
"c+	c #006ACC",
"d+	c #0069CA",
"e+	c #1859D9",
"f+	c #0A41B9",
"g+	c #064143",
"h+	c #EC950E",
"i+	c #FEF64B",
"j+	c #B010F7",
"k+	c #B616F9",
"l+	c #6F09C5",
"m+	c #FE90FE",
"n+	c #91ADFE",
"o+	c #009EFE",
"p+	c #009FFF",
"q+	c #006BCC",
"r+	c #0066CC",
"s+	c #1443D4",
"t+	c #1A57D9",
"u+	c #0B41BA",
"v+	c #064142",
"w+	c #EB930E",
"x+	c #934006",
"y+	c #1E1D1E",
"z+	c #151414",
"A+	c #FEF349",
"B+	c #B212F7",
"C+	c #B715F8",
"D+	c #7406C8",
"E+	c #FE93FE",
"F+	c #93A7FE",
"G+	c #6A7DFE",
"H+	c #00A0FF",
"I+	c #0069CB",
"J+	c #1740D6",
"K+	c #1440D4",
"L+	c #182FC5",
"M+	c #0B42BB",
"N+	c #0C41BA",
"O+	c #064145",
"P+	c #100E10",
"Q+	c #FCD000",
"R+	c #A401EA",
"S+	c #7700A9",
"T+	c #FF31FF",
"U+	c #C300FE",
"V+	c #FE88FF",
"W+	c #6878FF",
"X+	c #5147FF",
"Y+	c #183ED5",
"Z+	c #440180",
"`+	c #AA0056",
" @	c #940067",
".@	c #0A41BB",
"+@	c #0B42B8",
"@@	c #054041",
"#@	c #C66A05",
"$@	c #1E1D1D",
"%@	c #C96D07",
"&@	c #FED100",
"*@	c #8A00C8",
"=@	c #B100E9",
"-@	c #FF35FF",
";@	c #FF34FF",
">@	c #502BD2",
",@	c #B086FE",
"'@	c #5643FE",
")@	c #183ED3",
"!@	c #A50057",
"~@	c #C7004B",
"{@	c #930066",
"]@	c #900066",
"^@	c #0A43B8",
"/@	c #054141",
"(@	c #C56A05",
"_@	c #944106",
":@	c #0C0C0C",
"<@	c #EB950F",
"[@	c #510063",
"}@	c #AF00F0",
"|@	c #FF33FF",
"1@	c #FF32FF",
"2@	c #77007E",
"3@	c #A60061",
"4@	c #B50057",
"5@	c #CA003E",
"6@	c #96005E",
"7@	c #950062",
"8@	c #920068",
"9@	c #900069",
"0@	c #450074",
"a@	c #F9B400",
"b@	c #974206",
"c@	c #181818",
"d@	c #232223",
"e@	c #39150C",
"f@	c #4F025F",
"g@	c #AA00EB",
"h@	c #AD00CC",
"i@	c #AC00C5",
"j@	c #9E0070",
"k@	c #D9013C",
"l@	c #DD0234",
"m@	c #C90048",
"n@	c #C6004A",
"o@	c #920062",
"p@	c #91006A",
"q@	c #89006B",
"r@	c #40006F",
"s@	c #ED8100",
"t@	c #3B150C",
"u@	c #1F1E1F",
"v@	c #0E0C0C",
"w@	c #EB960E",
"x@	c #FFDD00",
"y@	c #730077",
"z@	c #990070",
"A@	c #BF005A",
"B@	c #C00055",
"C@	c #C1004F",
"D@	c #C7004A",
"E@	c #C5004C",
"F@	c #4B0063",
"G@	c #430167",
"H@	c #C86F05",
"I@	c #954306",
"J@	c #E8900F",
"K@	c #410451",
"L@	c #410250",
"M@	c #460552",
"N@	c #49074F",
"O@	c #4A0847",
"P@	c #4B0A3B",
"Q@	c #490B33",
"R@	c #470A3A",
"S@	c #46054A",
"T@	c #F5A200",
"U@	c #171415",
"V@	c #020202",
"W@	c #1F1C1D",
"X@	c #1B1819",
"Y@	c #964306",
"Z@	c #954206",
"`@	c #CA6C06",
" #	c #CB6C06",
".#	c #CC6C05",
"+#	c #964206",
"@#	c #141314",
"##	c #39160D",
"$#	c #3A140B",
"%#	c #974205",
"&#	c #974306",
"*#	c #974207",
"=#	c #39150D",
"-#	c #181517",
";#	c #242323",
">#	c #1D1C1D",
",#	c #020101",
"'#	c #060606",
"  . + @ # $ % & * . + + = - ; @ * @ + . # > , ' & ) + ! ; > ~ ' ",
". + { ] , ^ /   . + + + , ^ & @ ( _ _ + , ' { * + { + + ^ ' & * ",
": < [ & } | 1 2 3 $ , ^ 4 5 6 { : 7 8 9 } 0 a b # [ , ' 2 | 6 1 ",
"c ^ ^ & 6 3 = # $ ' & / | b 2 : $ ; ^ { 4 d 2 # $ , { / > b 3 : ",
"^ * . + = > 7 @ & * . + 2 # e f ^ * @ + = : $ , ' /   + ~ = g , ",
". + + . $ ; ^ /   . + h i j k l m n o p q , ; /   . + + ; ~ c & ",
"+ + + + ^ / . + ! + r s t u v w x y z A B &   . + + + + & [ * . ",
"# $ ; C 5 6 1 = # D E F G H H I J K L M N O q 2 : $ , ^ 2 [ 1 2 ",
"@ & * @ 3 = @ $ ; P Q R S T U V W X Y Z `  ...$ , ^ * ] $ 3 : > ",
"/   + @ # $ +.@.#.$.%.&.*.=.T -.;.>.,.'.).!.~.{.&   . + $ > $ ; ",
"+ + + @ ].^ / ^.l /.(._.:.<.[.}.|.1.'.2.3.4.5.6.7.+ + + & @.@ * ",
"^ ^ ^ 8.9.~ ; 0.a.b.c.d.e.f.g.h.i.j.k.3.l.m.n.o.p.& &   , > q.; ",
"~ ; ^ / 6 3 r.s.t.u.v.w.x.y.z.A.B.C.D.E.F.G.H.I.J., ' @ # 1 K.: ",
"^ * + + 2 # $ L.M.N.O.P.Q.R.S.T.U.V.W.X.Y.Z.`.I.J.&   +  += # ~ ",
"  + + + { .+^ ++@+#+$+%+&+*+=+=+-+-+;+>+,+Z.'+)+J.. + + ^ ~ @ & ",
". + + + ' ^ . ++!+~+{+]+^+/+(+_+:+<+[+}+|+1+2+3+J.+ + . ^ ^ * . ",
"# > ; & | 4 b 4+5+6+7+8+9+0+a+b+c+c+d+e+1+f+g+3+J.$ ~ ' 3 5 1 3 ",
"; ^ / * 3 3 : h+i+j+k+l+m+n+o+p+q+r+s+t+f+u+v+w+x+' & y+> 2 2 z+",
"* . @ ! 7 $ , 4+A+B+C+D+E+F+G+H+I+J+K+L+M+N+O+)+J.  . + ' # $ ' ",
"+ ] + + , P+e h+Q+R+S+T+U+V+W+X+Y+Z+`+ @.@+@@@#@x++ + + ^ ; ^ * ",
"q.+ + $@@ * + %@&@*@=@-@;@>@,@'@)@!@~@{@]@^@/@(@_@+ @ ! / / . { ",
"$ ; ^ :@@ 6 2 {.<@[@}@|@1@2@3@4@5@6@7@8@9@0@a@b@h , @ / = b b @ ",
"' * @ _ c@d@$ @ e@f@g@h@i@j@k@l@m@n@o@p@q@r@s@t@; u@* + ~ = # ~ ",
"  . ! + $ ~ ^ v@@ w@x@y@z@A@B@C@D@D@E@F@G@H@I@@ * + . + ; $ , ^ ",
"! @ + + ' & .   . e@J@K@L@M@N@O@P@Q@R@S@T@I@e@. + ! + +   & @   ",
"U@V@^ ^ @.W@X@r.U@@ - Y@Z@`@ #.# # #`@_@+#6 1 X@= $ @#' $ 4 { 2 ",
"@ ' @ . 2 : # $ , ' / ##$#Y@%#&#Y@b@*#=#7.b : $ ~ ' {   $ 3 = > ",
"/   + + # > , ' /   + + = > ~ ' v@* + . -#;#$ ; C * . ! ~ # $ ; ",
". + + >#~ ; & { . + + + $ ; ^ * + + ].+ $ ~ u@/ { + >#+ & ; ^ & ",
"! + ! + ,#. { _ @ . . { ~ { . . !   ( + / /   ! '#q.y++ & /     ",
"~ c ^ & [ 1 @ : @ ; ' { 4 @ 3 : > ~ ' / 5 1 3 : d@~ P+& # 4 b = ",
"^ / @ . 2 @ @#, ' & ) + 2 @ > ~ @.&   . 3 = # @ @.u@  + $ : : ~ "};
