/* XPM */
static char *e9a48ad5f6cb438cec6aeb0b4b26fe83oL50bqqXvf6iVew1[] = {
/* columns rows colors chars-per-pixel */
"32 32 138 2 ",
"   c #39150C",
".  c #3F3F3F",
"X  c #490A38",
"o  c #403F3F",
"O  c #004D21",
"+  c #00493D",
"@  c #3F403F",
"#  c #40403F",
"$  c #3F3E40",
"%  c #48074B",
"&  c #430451",
"*  c #4F025F",
"=  c #403F40",
"-  c #450068",
";  c #510063",
":  c #450074",
">  c #75007B",
",  c #054244",
"<  c #005040",
"1  c #004255",
"2  c #005759",
"3  c #006967",
"4  c #006F66",
"5  c #007067",
"6  c #00706A",
"7  c gray25",
"8  c #4D4D4D",
"9  c #CA003E",
"0  c #DB0238",
"q  c #944106",
"w  c #9C4707",
"e  c #AE5407",
"r  c #B75B06",
"t  c #C66805",
"y  c #CA6D06",
"u  c #96005E",
"i  c #A80057",
"p  c #BA0059",
"a  c #89006B",
"s  c #930065",
"d  c #910069",
"f  c #9C0070",
"g  c #A60061",
"h  c #C6004B",
"j  c #C90048",
"k  c #C00055",
"l  c #15B439",
"z  c #489216",
"x  c #73FD37",
"c  c #008946",
"v  c #019F5B",
"b  c #02BB44",
"n  c #00A059",
"m  c #00B55B",
"M  c #008C77",
"N  c #009176",
"B  c #00AB60",
"V  c #00B274",
"C  c #00CD5C",
"Z  c #00D659",
"A  c #00E25B",
"S  c #5DFF47",
"D  c #4BF750",
"F  c #ED8100",
"G  c #EE8900",
"H  c #EB940E",
"J  c #EC9410",
"K  c #F5A200",
"L  c #F8AC00",
"P  c #FAB300",
"I  c #FDD300",
"U  c #FFDD00",
"Y  c #EEFE19",
"T  c #F2FE13",
"R  c #ECFF20",
"E  c #E0FF36",
"W  c #DBF849",
"Q  c #D4F154",
"!  c #E2FF43",
"~  c #E3FF49",
"^  c #F6FF40",
"/  c #FEF44C",
"(  c #FBF752",
")  c #440180",
"_  c #58179B",
"`  c #7700A9",
"'  c #007280",
"]  c #00759A",
"[  c #007A99",
"{  c #0B41B9",
"}  c #0067AD",
"|  c #006AAE",
" . c #007CAA",
".. c #0066B0",
"X. c #0068B0",
"o. c #007FBC",
"O. c #182FC5",
"+. c #183ED4",
"@. c #6E0AC3",
"#. c #7406C8",
"$. c #502BD2",
"%. c #1541D5",
"&. c #1958D9",
"*. c #0066CC",
"=. c #006ACB",
"-. c #5445FF",
";. c #697BFF",
":. c #8A00C8",
">. c #AD00C9",
",. c #9607EA",
"<. c #9A09EC",
"1. c #A701EB",
"2. c #B100E9",
"3. c #AF00F0",
"4. c #B111F7",
"5. c #B616F9",
"6. c #C300FE",
"7. c #FF33FF",
"8. c #0083B7",
"9. c #0081B9",
"0. c #00B1A8",
"q. c #00F0BF",
"w. c #0081CA",
"e. c #00A8C6",
"r. c #009FFF",
"t. c #00A1FE",
"y. c #16DFD7",
"u. c #00F2C0",
"i. c #09DCFF",
"p. c #0AE2FE",
"a. c #19F3F2",
"s. c #2BE6F3",
"d. c #D9F88A",
"f. c #FEFF8D",
"g. c #B086FE",
"h. c #92AAFE",
"j. c #FF8CFF",
"k. c #FE92FE",
/* pixels */
". . 8 8 . . 8 8 . . 8 8 . . 8 8 . . 8 8 . . 8 8 . . 8 8 . . 8 8 ",
". . 8 8 o . 8 8 . . 8 8 . . 8 8 . . 8 8 . . 8 8 . @ 8 8 . . 8 8 ",
"8 8 . . 8 8 . . 8 8 . . 8 8 . . 8 8 . . 8 8 . . 8 8 . . 8 8 . . ",
"8 8 . . 8 8 . . 8 8 . . 8 8 . . 8 8 . . 8 8 . . 8 8 . . 8 8 @ . ",
". . 8 8 . . 8 8 . . 8 8 . . 8 8 . . 8 8 . . 8 8 . . 8 8 . . 8 8 ",
". . 8 8 $ . 8 8 . . 8     J J H H H e     . 8 8 . . 8 8 . . 8 8 ",
"8 8 . . 8 8 . . 8 8 # J H / / / / P P w w 8 . . 8 8 . . 8 8 . @ ",
"8 8 . . 8 8 . . 8   J + < A A A m n v 1 P w   . 8 8 . . 8 8 . $ ",
". . 8 8 . . 8 8 @ J ( x C A A A m v 3 N 2 F t 8 . . 8 8 . . 8 8 ",
". . 8 8 . . 8 8   O D ~ ! A A m m 2 B 4 M 1 G   . # 8 8 . . 8 8 ",
"8 8 . . 8 8 .   H c ^ ! W D Z Z C B 4 5 5 2 L r   8 . . 8 8 . . ",
"8 8 . . 8 8 @ H / z T R E f.S a.y.6 V 5 5 } , r q 8 . . 8 8 . . ",
". . 8 8 . . 8 H / ,.l Y b Q Q q.0.e.' 5 6 } , H q o 8 8 . . 8 8 ",
". . 8 8 . . 8 L I ,.<._ f.a.u.p.8.[ ]  .| .., H q 7 8 8 . . 8 8 ",
"8 8 . . 8 8 . L I ,.<.@.d.s.i.i.9.9.] w.| .., H q 8 . . 8 8 . . ",
"8 8 . . 8 8 o L / <.<.@.d.s.i.t.=.o.o.w.X.{ , H q 8 . . 8 8 . . ",
". . 8 8 . . 8 H / <.5.@.j.s.i.t.=.=.=.&.{ { , H q . 8 8 . . 8 8 ",
". o 8 8 . . 8 H / 4.5.@.k.h.r.r.=.*.%.&.{ { , H q . 8 8 . . 8 8 ",
"8 8 . . 8 8 o H / 4.5.#.k.h.;.t.=.%.%.O.{ { , H q 8 . . 8 8 . . ",
"8 8 . . 8 8 o H I 1.` 7.6.j.;.-.+.) i s { { , t q 8 . . 8 8 . . ",
". . 8 8 . . 8 y I :.2.7.7.$.g.-.+.i h s s { , t q . 8 8 . . 8 8 ",
". . 8 8 . o 8   H ; 3.7.7.> g p 9 u s d d : P q   . 8 8 . . 8 8 ",
"8 8 . . 8 8 . .   * 1.>.>.f 0 0 j h s d a : F   8 8 . . 8 8 . . ",
"8 8 . . 8 8 . . 8 H U > f p k h h h h ; - y q = 8 8 . . 8 8 . . ",
". . 8 8 . o 8 8 .   H & & & % % X X X % K q   8 . . 8 8 . . 8 8 ",
". . 8 8 . . 8 8 . o 8 q q y y y y y y q q . 8 8 . . 8 8 . . 8 8 ",
"8 8 . . 8 8 . . 8 8 .     q q q q q q     8 . . 8 8 . . 8 8 . . ",
"8 8 . . 8 8 . . 8 8 7 . 8 8 o . 8 8 . . 8 8 . . 8 8 . . 8 8 . . ",
". . 8 8 . . 8 8 . . 8 8 . . 8 8 . . 8 8 . $ 8 8 . . 8 8 . . 8 8 ",
". . 8 8 . . 8 8 . . 8 8 . . 8 8 . . 8 8 . . 8 8 . @ 8 8 . . 8 8 ",
"8 8 . . 8 8 . . 8 8 . . 8 8 . . 8 8 . . 8 8 . . 8 8 . . 8 8 . . ",
"8 8 . . 8 8 . . 8 8 . . 8 8 . . 8 8 . . 8 8 . . 8 8 . . 8 8 . . "
};
