/* XPM */
static char *_518166aff0b4307e5431f8f16850d1bkn0rnlVWpxP27iU9[] = {
/* columns rows colors chars-per-pixel */
"32 32 101 2 ",
"   c #010102",
".  c #03060B",
"X  c #04080D",
"o  c #090A0D",
"O  c #030811",
"+  c #0B0E16",
"@  c #0B0E18",
"#  c #151515",
"$  c #16191A",
"%  c #191B19",
"&  c #121A26",
"*  c #1A1F25",
"=  c #181E28",
"-  c #1A2027",
";  c #1C232C",
":  c #1F292F",
">  c #222323",
",  c #262826",
"<  c #202A2B",
"1  c #282A29",
"2  c #2B363D",
"3  c #353736",
"4  c #363837",
"5  c #30363C",
"6  c #30393F",
"7  c #3B3E3D",
"8  c #3C403F",
"9  c #343D45",
"0  c #3D3E40",
"q  c #343E4A",
"w  c #3C4041",
"e  c #304050",
"r  c #384551",
"t  c #434345",
"y  c #4A4B4D",
"u  c #414C56",
"i  c #4E4F50",
"p  c #464F59",
"a  c #47535D",
"s  c #48525C",
"d  c #515756",
"f  c #4B5965",
"g  c #455568",
"h  c #475D6F",
"j  c #4A5C6D",
"k  c #5B5F60",
"l  c #475D71",
"z  c #485D71",
"x  c #466075",
"c  c #596774",
"v  c #596877",
"b  c #556A7D",
"n  c #666867",
"m  c #6D7275",
"M  c #717476",
"N  c #727679",
"B  c #77787B",
"V  c #7A7B7F",
"C  c #566C82",
"Z  c #577483",
"A  c #5D7182",
"S  c #5D768E",
"D  c #5D7791",
"F  c #5C7992",
"G  c #5B7C99",
"H  c #606F82",
"J  c #61768C",
"K  c #7B7C80",
"L  c #607B93",
"P  c #818385",
"I  c #878C8E",
"U  c #898D8F",
"Y  c #878C90",
"T  c #898E90",
"R  c #8E9397",
"E  c #8F9299",
"W  c #8F9498",
"Q  c #909396",
"!  c #909497",
"~  c #919398",
"^  c #909599",
"/  c #949599",
"(  c #A4A5AA",
")  c #A6ABAF",
"_  c #A8ABB0",
"`  c #AAADB2",
"'  c #ABAEB5",
"]  c #ADB1B7",
"[  c #ADB0B8",
"{  c #B4B3B2",
"}  c #B2B6B9",
"|  c #B9BABE",
" . c #C1C1BF",
".. c #B9BCC1",
"X. c #BCBFC4",
"o. c #E0E2E6",
"O. c #E7E9EC",
"+. c gray95",
"@. c #F3F6F9",
"#. c #F9FCFD",
"$. c white",
/* pixels */
"$.$.$.$.$.$.$.$.$.$.$.$.$.$.$.$.$.$.$.$.$.$.$.$.$.$.$.$.$.$.$.$.",
"$.$.$.$.$.$.$.$.$.$.$.$.$.$.$.$.$.$.$.$.$.$.$.$.$.$.$.$.$.$.$.$.",
"$.$.$.$.$.$.$.$.$.$.$.$.$.$.$.$.$.$.$.$.$.$.$.$.$.$.$.$.$.$.$.$.",
"$.$.$.$.$.$.$.$.$.#   H b h z z + J @ A 2 # $.$.$.$.$.$.$.$.$.$.",
"$.$.$.$.$.$.#.  b D J a * z h z h C x s S q G    .$.$.$.$.$.$.$.",
"$.$.$.$.$.{ l l p D S = D .   f g &   D S D S j r $ $.$.$.$.$.$.",
"$.$.$.$.. z z z l o X . u F f z z h D Z 6 S A h q z   $.$.$.$.$.",
"$.$.$.. z z z h 0 ^ W ^ W W W ^ W W W W E W o f 9 z z   $.$.$.$.",
"$.$.  . S   h                                     h   S q $.$.$.",
"$.$.D S L S m 7 7   W $ 7 K W w 7   W 7 7 W W 7 ,   D D D   $.$.",
"$.+.D D 5 X R 8 7   W % 7 K W 7 7   W 7 7 ! W 7 1 R S   D   $.$.",
"$.        k Q 7 7   ! # 7 V ^ 8 7   ! 7 7 ! ! 7 > ^         $.$.",
"$.  S J F I R | W W ^ [ W W W m R W W R } W W W ( W   D S   $.$.",
"$.X D D F U R 7 7   ^ % 7 K ! 7 7   ^ 7 7 ^ / 7 1 ^ S D D D $.$.",
"$.        I R 8 7   W $ 7 K W w 7   W 7 7 ! W 7 > W         $.$.",
"$.. z f f I R 7 7   W % 7 K W w 7   W 7 7 ! W 7 , W   h   z $.$.",
"$.. z h l y y 1 1   i # 1 t i 1 1   i 1 1 i i 1 $ i z J h z $.$.",
"$.  X X O Y R ..W W W ' W W W m E W W E ..W W W _ W X X X X $.$.",
"$.. ; D D I W 8 7   W % 7 V W 7 7   W 7 7 R W 7 1 W S D ; S $.$.",
"$.X D D F I W 7 7   W % 7 K W 7 7   W 7 7 Q W 7 1 W D D D D $.$.",
"$.. v v b I R 7 7   W % 7 K W 0 7   W 7 7 ! W 7 , ^ c v v v $.$.",
"$.. l l l T R X.^ W W ` ~ ~ W ^ R E ~ R W R ^ ^ ] R z l l l $.$.",
"$.X   h e n M M N N M m M N N N N N N M N N N N M N h f h   $.$.",
"$.< z z l I R 7 7   W % 7 V W 0 7   W 7 7 ^ W 7 , W h l l h $.$.",
"$.: D D F I R 8 7   W % 7 K W 7 7   W 7 7 R W 7 1 W S D D D $.$.",
"$.>   J F I R 8 7   W % 7 K W 0 7   W 7 7 ^ W 7 1 W S D S D $.$.",
"$.- D D D d R @.R W R O.R R W ) ^ R W E O.W R W o.W D D S S $.$.",
"$.* z l h B P 4 4   P % 4 M P 4 3   P 4 3 P P 3 > P h z z z $.$.",
"$.* z j q I W 7 7   W % 7 K W w 7   W 7 7 ^ W 7 , W h   q z $.$.",
"$.. z h z I R 7 7   W % 7 V ^ 7 7   W 7 7 ! W 7 , W j h z h $.$.",
"$.$.$.$.$.$.$.$.$.$.$.$.$.$.$.$.$.$.$.$.$.$.$.$.$.$.$.$.$.$.$.$.",
"$.$.$.$.$.$.$.$.$.$.$.$.$.$.$.$.$.$.$.$.$.$.$.$.$.$.$.$.$.$.$.$."
};
