/* XPM */
static char *_8134462e22b4b9ce63f9cefd7da83a707MBymnqIXLUrvhA[] = {
/* columns rows colors chars-per-pixel */
"32 32 85 1 ",
"  c #010101",
". c #080101",
"X c #01030A",
"o c #0D0708",
"O c #090909",
"+ c #060D13",
"@ c #0E0F13",
"# c #0B0E18",
"$ c #0E1013",
"% c #191718",
"& c #1C1B1B",
"* c #36281A",
"= c #121925",
"- c #182121",
"; c #212524",
": c #2E3238",
"> c #401C0D",
", c #4A230F",
"< c #4C280F",
"1 c #542B0B",
"2 c #452411",
"3 c #4A2310",
"4 c #552914",
"5 c #592E17",
"6 c #592E18",
"7 c #5F3618",
"8 c #61371A",
"9 c #61381B",
"0 c #674227",
"q c #694227",
"w c #694228",
"e c #6F4A2A",
"r c #72472B",
"t c #72492A",
"y c #6B4B33",
"u c #7E5B3E",
"i c #363F4C",
"p c #33414C",
"a c #344351",
"s c #45494A",
"d c #4D5A63",
"f c #475C6E",
"g c #4A5D6E",
"h c #465D72",
"j c #495D71",
"k c #845836",
"l c #89713E",
"z c #9F6F47",
"x c #9F7146",
"c c #9F7148",
"v c #A46F44",
"b c #A17147",
"n c #A57248",
"m c #BF992B",
"M c #F9BB18",
"N c #C8A12F",
"B c #C88A56",
"V c #C7895A",
"C c #C98A5A",
"Z c #5B6F82",
"A c #5D768D",
"S c #5D7A8F",
"D c #5D7692",
"F c #5B7890",
"G c #5B7893",
"H c #5C7890",
"J c #637384",
"K c #617387",
"L c #607486",
"P c #637688",
"I c #60778D",
"U c #7C8185",
"Y c #7289A1",
"T c gray56",
"R c #8B8E93",
"E c #8C8D92",
"W c #8A8F95",
"Q c #8C8F94",
"! c #979797",
"~ c #93969B",
"^ c #96999E",
"/ c #9D9D9D",
"( c #989CA0",
") c #EEEEEE",
"_ c #FEFEFE",
/* pixels */
"________________________________",
"________________________________",
"________________________________",
"____________      !_____________",
"________/ FP jjh.h:FF __________",
"______ hsDLXFfXjZaAJADFd________",
"_____Xjjf # DSfhgAD#AXjj O______",
"____+hffgy,tr>ry2rt3e hfff)_____",
"___ JAXotk5xb3bc8bbqbC<h JP_____",
"___ADD=2tb6bb,bc7bbwbV4uSIDT____",
"___ppie2xb5bb3bc9bn0bV4z ip-____",
"__  I e3xb5bb3bc8xnwbV4bH  F____",
"__ DDAe3xb5xb3bc9bbwbV4bAFDF____",
"__    r2xb5bb3bc9bnqbV4b    ____",
"__ jjjWURR~ER(RR~RRWWR^Rfh h____",
"__ hhj                  jjjh____",
"__ AAAt2xb5bb3xc7bnwbV4bIAAA____",
"__ ADDe3xb5bb3bc9bnwbCMNADA ____",
"__ ADDt3xb5bx3bc7bnwbm*lDADF____",
"__ jfje2xb5bb3bc8bbwbV1cjjjh____",
"__  fje2xb5bb3bc7bbwbV4bjfj ____",
"__Offfr2xb5bb3bc7bbwbV4bjffh____",
"__;DYA$$@$@@$@@@$@$@$@@@ DDD____",
"__&ADDRRRRRRRRRRRRRRRRRQ D$p____",
"__&   r2xb5bb3bc7bn0bC4b    ____",
"__%h fe2xb5bb,bc9bbwbC4bhjjh____",
"__ jjje2bv5xb3bb8bbwxB4bijjh____",
"________________________________",
"________________________________",
"________________________________",
"________________________________",
"________________________________"
};
