/* XPM */
static char * exit_open_xpm[] = {
"32 32 362 2",
"  	c #0B090A",
". 	c #0A0809",
"+ 	c #090708",
"@ 	c #000000",
"# 	c #161415",
"$ 	c #141213",
"% 	c #110F10",
"& 	c #0E0C0D",
"* 	c #0C0A0B",
"= 	c #181617",
"- 	c #141113",
"; 	c #151314",
"> 	c #121011",
", 	c #100E0F",
"' 	c #0A080A",
") 	c #080607",
"! 	c #131112",
"~ 	c #010000",
"{ 	c #080808",
"] 	c #0F0D0E",
"^ 	c #0D0B0C",
"/ 	c #090909",
"( 	c #171516",
"_ 	c #020001",
": 	c #222021",
"< 	c #201E1F",
"[ 	c #1C1A1B",
"} 	c #191718",
"| 	c #1A1819",
"1 	c #1E1C1D",
"2 	c #1F1D1E",
"3 	c #1D1B1C",
"4 	c #121212",
"5 	c #101010",
"6 	c #211F20",
"7 	c #030102",
"8 	c #1B191A",
"9 	c #161616",
"0 	c #020202",
"a 	c #606F82",
"b 	c #556A7F",
"c 	c #485D6F",
"d 	c #485D72",
"e 	c #0B0E16",
"f 	c #617688",
"g 	c #0B0E18",
"h 	c #5C7080",
"i 	c #2B363D",
"j 	c #000105",
"k 	c #566B7E",
"l 	c #5D7790",
"m 	c #60778F",
"n 	c #47535D",
"o 	c #1A1E24",
"p 	c #4A5B75",
"q 	c #475C6F",
"r 	c #485D70",
"s 	c #566C82",
"t 	c #466075",
"u 	c #48525C",
"v 	c #5E778D",
"w 	c #353F48",
"x 	c #5B7C99",
"y 	c #000002",
"z 	c #C1C1BF",
"A 	c #B4B3B2",
"B 	c #475D72",
"C 	c #475E70",
"D 	c #464F59",
"E 	c #5E768F",
"F 	c #181E28",
"G 	c #030509",
"H 	c #000103",
"I 	c #4E5863",
"J 	c #455568",
"K 	c #121A26",
"L 	c #060000",
"M 	c #5D7693",
"N 	c #5C768F",
"O 	c #485869",
"P 	c #384551",
"Q 	c #141B1F",
"R 	c #05070B",
"S 	c #09090B",
"T 	c #06080B",
"U 	c #040508",
"V 	c #414C56",
"W 	c #5A7894",
"X 	c #485866",
"Y 	c #4A5C70",
"Z 	c #4A5D6D",
"` 	c #5D7694",
" .	c #577483",
"..	c #30393F",
"+.	c #5D778E",
"@.	c #5D7184",
"#.	c #4B5E6D",
"$.	c #363F4C",
"%.	c #010104",
"&.	c #02060C",
"*.	c #4A5E70",
"=.	c #475E6F",
"-.	c #3C3E40",
";.	c #919598",
">.	c #8F9498",
",.	c #93969B",
"'.	c #909599",
").	c #8F949A",
"!.	c #8E9399",
"~.	c #090A0E",
"{.	c #4C5A68",
"].	c #343D45",
"^.	c #00030A",
"/.	c #5A778F",
"(.	c #000106",
"_.	c #465C6E",
":.	c #010101",
"<.	c #040404",
"[.	c #010201",
"}.	c #010200",
"|.	c #010100",
"1.	c #4B5C6E",
"2.	c #5D738A",
"3.	c #343C4A",
"4.	c #5E7790",
"5.	c #5F778E",
"6.	c #607B93",
"7.	c #58758E",
"8.	c #6E7275",
"9.	c #3B3F3E",
"0.	c #010103",
"a.	c #171918",
"b.	c #3A3E3D",
"c.	c #7B7C80",
"d.	c #3C4041",
"e.	c #000001",
"f.	c #8D9598",
"g.	c #262826",
"h.	c #040403",
"i.	c #5D7791",
"j.	c #030101",
"k.	c #5E7690",
"l.	c #30363C",
"m.	c #070A09",
"n.	c #8E9397",
"o.	c #3C403F",
"p.	c #000202",
"q.	c #181918",
"r.	c #393D3C",
"s.	c #3B3F3F",
"t.	c #909497",
"u.	c #282A28",
"v.	c #8F9297",
"w.	c #5F768C",
"x.	c #010001",
"y.	c #5C7791",
"z.	c #030100",
"A.	c #5B5F60",
"B.	c #909396",
"C.	c #3D3F3E",
"D.	c #3C3E3D",
"E.	c #7B7C7E",
"F.	c #919596",
"G.	c #919497",
"H.	c #222223",
"I.	c #93979A",
"J.	c #000004",
"K.	c #070506",
"L.	c #5E748F",
"M.	c #61768E",
"N.	c #5D7B90",
"O.	c #878C8F",
"P.	c #B9BABE",
"Q.	c #ADB0B8",
"R.	c #6B7074",
"S.	c #8F9396",
"T.	c #B2B6B9",
"U.	c #A4A5AA",
"V.	c #010002",
"W.	c #5B7693",
"X.	c #5C768D",
"Y.	c #191818",
"Z.	c #03080F",
"`.	c #5C7892",
" +	c #898D8F",
".+	c #8E9196",
"++	c #040406",
"@+	c #919699",
"#+	c #191B1A",
"$+	c #7E7F83",
"%+	c #3A3E3F",
"&+	c #949599",
"*+	c #2B2B2A",
"=+	c #030000",
"-+	c #000101",
";+	c #878C8E",
">+	c #000100",
",+	c #909496",
"'+	c #8E9498",
")+	c #212321",
"!+	c #010003",
"~+	c #03060D",
"{+	c #4C5D68",
"]+	c #4C5A67",
"^+	c #191A19",
"/+	c #8C9598",
"(+	c #4B5D6C",
"_+	c #040001",
":+	c #485D6E",
"<+	c #48494A",
"[+	c #4C4D4F",
"}+	c #282A29",
"|+	c #282928",
"1+	c #4D4E50",
"2+	c #111312",
"3+	c #434345",
"4+	c #4E4F50",
"5+	c #2A2C2B",
"6+	c #010202",
"7+	c #4D4F51",
"8+	c #282828",
"9+	c #161819",
"0+	c #4A5C71",
"a+	c #60748C",
"b+	c #485C6D",
"c+	c #475B70",
"d+	c #03080E",
"e+	c #030811",
"f+	c #878C90",
"g+	c #8D9296",
"h+	c #B9BCC1",
"i+	c #ABAEB5",
"j+	c #6D7174",
"k+	c #8F9299",
"l+	c #8D9298",
"m+	c #BABFC3",
"n+	c #A8ABB0",
"o+	c #03080D",
"p+	c #02080F",
"q+	c #151414",
"r+	c #030608",
"s+	c #1C232C",
"t+	c #5C7693",
"u+	c #5D7792",
"v+	c #868D8F",
"w+	c #3B403F",
"x+	c #000102",
"y+	c #8E949A",
"z+	c #191B19",
"A+	c #7A7B7F",
"B+	c #3C3F3E",
"C+	c #8F9499",
"D+	c #8F9497",
"E+	c #28292A",
"F+	c #5E778E",
"G+	c #1A1C1B",
"H+	c #909397",
"I+	c #5E7691",
"J+	c #05060B",
"K+	c #596877",
"L+	c #546A79",
"M+	c #010302",
"N+	c #181A19",
"O+	c #3E3F41",
"P+	c #252625",
"Q+	c #596774",
"R+	c #475D71",
"S+	c #455E73",
"T+	c #898E90",
"U+	c #BCBFC4",
"V+	c #909499",
"W+	c #AAADB2",
"X+	c #909398",
"Y+	c #919398",
"Z+	c #8F9397",
"`+	c #8F9398",
" @	c #919498",
".@	c #ADB1B7",
"+@	c #4B5C70",
"@@	c #04080E",
"#@	c #4B5D6D",
"$@	c #304050",
"%@	c #666867",
"&@	c #707676",
"*@	c #707477",
"=@	c #717578",
"-@	c #727677",
";@	c #6F7376",
">@	c #727377",
",@	c #757678",
"'@	c #737778",
")@	c #737478",
"!@	c #737479",
"~@	c #73767A",
"{@	c #73777A",
"]@	c #707374",
"^@	c #707578",
"/@	c #717679",
"(@	c #72767A",
"_@	c #717579",
":@	c #727577",
"<@	c #4A5C6D",
"[@	c #4F5A6A",
"}@	c #4B5C6C",
"|@	c #020405",
"1@	c #202A2B",
"2@	c #495D72",
"3@	c #909498",
"4@	c #485C6F",
"5@	c #465E71",
"6@	c #1F292F",
"7@	c #5F7793",
"8@	c #5E7891",
"9@	c #010204",
"0@	c #171415",
"a@	c #222422",
"b@	c #65778D",
"c@	c #919499",
"d@	c #5F778D",
"e@	c #5B778F",
"f@	c #1A2027",
"g@	c #5C7691",
"h@	c #5D7691",
"i@	c #515756",
"j@	c #8D9295",
"k@	c #F3F6F9",
"l@	c #E7E8EB",
"m@	c #A6ABAF",
"n@	c #E6EAEC",
"o@	c #E0E2E6",
"p@	c #5F7691",
"q@	c #1A1F24",
"r@	c #475C71",
"s@	c #77787B",
"t@	c #818485",
"u@	c #363837",
"v@	c #828385",
"w@	c #1A1A1A",
"x@	c #727375",
"y@	c #808083",
"z@	c #383838",
"A@	c #353736",
"B@	c #010102",
"C@	c #838486",
"D@	c #363636",
"E@	c #848587",
"F@	c #808284",
"G@	c #222222",
"H@	c #495D6F",
"I@	c #485C71",
"J@	c #191F26",
"K@	c #485A69",
"L@	c #303F4C",
"M@	c #495E6D",
"N@	c #010105",
"O@	c #353E49",
"P@	c #495D70",
"Q@	c #03060C",
"R@	c #4C5C6F",
"S@	c #495D71",
"T@	c #100E10",
"U@	c #141314",
"  . + @ # $ % & * . + + = - % @ * @ + . # ; > , & ' + ) % ; ! , ",
". + ~ { > ] ^   . + + + > ] & @ / { { + > , ~ * + ~ + + ] , & * ",
"( ! _ & : < [ } | $ > ] 1 2 3 ~ ( $ 4 5 : 6 7 8 # _ > , } < 3 [ ",
"> ] ] & 3 | = # $ 9 0 a b c d d e f g h i 9 } # $ > ~ ^ ; 8 | ( ",
"] * . + = ; $ j k l m n o p q r q s t u v w x y z ^   + ! = ; > ",
". + + . $ A B C D l E F l G H I J K L l E M N O P Q + + % ! > & ",
"+ + + + R r r r B S T U V W X r Y Z `  ...+.@.#.$.r %.+ & _ * . ",
"# $ % &.*.r r =.-.;.>.,.>.>.>.'.>.>.>.).!.>.~.{.].r r j } _ [ } ",
"@ & 0 ^./.(._.:.:._ ~ @ @ <.~ [.@ }.@ @ ~ |.@ @ :.1.|.2.3.| ( ; ",
"^   4.5.6.7.8.9.9.0.>.a.b.c.>.d.9.e.>.9.9.>.f.9.g.h.i.` l j.$ % ",
"+ + k.k.l.m.n.o.b.p.>.q.r.c.>.s.b.e.>.b.b.t.f.b.u.v.w.x.y.z.@ * ",
"] %.@ @ y A.B.C.C.@ t.9 D.E.;.o.C.e.t.C.9.F.G.D.H.I.J.@ @ @ K.% ",
"! @ L.M.N.O.n.P.>.>.'.Q.>.>.>.R.v.>.>.S.T.>.>.>.U.>.V.W.X.L Y.( ",
"] Z.l l `. +.+C.D.++@+#+D.$+t.%+D.:.'.D.b.;.&+C.*+;.v l l l # ! ",
"  =+-+-+@ ;+n.o.9.>+>.a.b.c.>.d.b.e.>.b.b.,+'+b.)+>.!+-+-+-+@ & ",
". ~+r {+]+;+n.9.9.0.>.^+b.c.>.d.b.e.>.b.r.t./+b.g.>.J.(+_+r * . ",
"# ~+d :+C <+[+}+|+0 1+2+|+3+4+5+|+6+7+|+8+4+1+|+9+4+0+a+b+c+[ | ",
"% 0.d+d+e+f+g+h+>.>.>.i+>.>.>.j+k+>.>.l+m+>.>.>.n+>.o+p+d+d+} q+",
"* r+s+t+u+v+>.w+b.x+y+z+b.A+'+B+b.-+C+b.b.n.D+b.E+'+5.l s+F+$ , ",
"+ Z.l l `.;+>.9.b.H >.G+b.c.>.9.b.e.>.%+b.H+/+b.u.>.I+l l l ] * ",
"K.J+K+K+L+;+n.9.9.M+>.N+9.c.>.O+9.-+>.b.b.,+/+b.P+'.Q+K+K+K+. ~ ",
"$ ~+R+R+S+T+n.U+V+>.>.W+X+Y+>.'.Z+`+Y+Z+'+n. @V+.@n.+@R+R+R+8 @ ",
", @@%.#@$@%@&@*@=@=@-@;@>@,@'@)@!@~@{@]@^@/@(@_@:@{@<@[@}@|@# ! ",
"  1@r 2@C ;+n.9.b.H >.z+b.A+>.-.b.e.>.b.b.3@/+b.g.>.4@B 5@:+> ] ",
") 6@7@7@8@;+n.o.9.9@>.z+b.c.>.9.b.e.>.b.b.S./+b.u.>.v 7@7@7@@   ",
"0@a@|.b@`.;+n.w+b.H >.z+b.c.>.-.b.-+>.b.r.c@f.b.|+>.d@l e@l ~ } ",
"@ f@g@h@i.i@j@k@n.>.n.l@n.n.>.m@c@n.>.!.n@>.n.>.o@>.p@l N N = ; ",
"^ q@d r@c s@t@u@u@M+v@w@u@x@y@z@A@B@C@u@D@E@F@A@G@y@H@d d I@$ % ",
". J@r K@L@;+>.9.b.H >.z+9.c.>.d.b.x+>.b.9.3@'+b.g.>.M@N@O@P@] & ",
") Q@P@H@r O.n.9.b.x+>.#+b.A+'.B+b.e.>.b.b.t./+b.g.>.R@H@S@H@    ",
"! > ] & _ [ @ ( @ % , ~ 1 @ | ( ; ! , ^ 2 [ | ( # ! T@& # 1 8 = ",
"] ^ @ . } @ U@> , & ' + } @ ; ! , &   . | = # @ % &   + $ ( ( ! "};
