/* XPM */
static char * exit_close_xpm[] = {
"32 32 322 2",
"  	c #0B090A",
". 	c #0A0809",
"+ 	c #090708",
"@ 	c #000000",
"# 	c #161415",
"$ 	c #141213",
"% 	c #110F10",
"& 	c #0E0C0D",
"* 	c #0C0A0B",
"= 	c #181617",
"- 	c #141113",
"; 	c #151314",
"> 	c #121011",
", 	c #100E0F",
"' 	c #0A080A",
") 	c #080607",
"! 	c #131112",
"~ 	c #010000",
"{ 	c #080808",
"] 	c #0F0D0E",
"^ 	c #0D0B0C",
"/ 	c #090909",
"( 	c #171516",
"_ 	c #020001",
": 	c #222021",
"< 	c #201E1F",
"[ 	c #1C1A1B",
"} 	c #191718",
"| 	c #1A1819",
"1 	c #1E1C1D",
"2 	c #1F1D1E",
"3 	c #1D1B1C",
"4 	c #121212",
"5 	c #101010",
"6 	c #211F20",
"7 	c #030102",
"8 	c #1B191A",
"9 	c #010101",
"0 	c #020202",
"a 	c #979797",
"b 	c #9D9D9D",
"c 	c #020301",
"d 	c #5B7893",
"e 	c #637688",
"f 	c #030000",
"g 	c #485D70",
"h 	c #465B70",
"i 	c #080101",
"j 	c #465D72",
"k 	c #2E3238",
"l 	c #5B7792",
"m 	c #030202",
"n 	c #030305",
"o 	c #465D71",
"p 	c #45494A",
"q 	c #5D7790",
"r 	c #607486",
"s 	c #000108",
"t 	c #5B7790",
"u 	c #485C6C",
"v 	c #00020A",
"w 	c #4A5C71",
"x 	c #5B6F82",
"y 	c #344351",
"z 	c #5E7489",
"A 	c #617387",
"B 	c #5C738B",
"C 	c #587690",
"D 	c #4D5A63",
"E 	c #01040A",
"F 	c #4A5C70",
"G 	c #485D6F",
"H 	c #040303",
"I 	c #0B0F17",
"J 	c #5D7692",
"K 	c #5D7C8F",
"L 	c #4A5D6F",
"M 	c #465D74",
"N 	c #4C5E6F",
"O 	c #5B758D",
"P 	c #0B0E18",
"Q 	c #5A768E",
"R 	c #030408",
"S 	c #495F73",
"T 	c #0E0C0E",
"U 	c #060D13",
"V 	c #465C71",
"W 	c #475C6F",
"X 	c #485C6E",
"Y 	c #6A4C35",
"Z 	c #49240E",
"` 	c #704A28",
" .	c #70472F",
"..	c #401C0D",
"+.	c #71472E",
"@.	c #6C4931",
"#.	c #442412",
"$.	c #71482E",
"%.	c #764C2C",
"&.	c #492312",
"*.	c #6D4A2E",
"=.	c #020006",
"-.	c #475C71",
";.	c #475868",
">.	c #848484",
",.	c #010102",
"'.	c #637384",
").	c #5C758E",
"!.	c #00050F",
"~.	c #0D0708",
"{.	c #71482A",
"].	c #845836",
"^.	c #592F17",
"/.	c #9F7147",
"(.	c #A07147",
"_.	c #492310",
":.	c #9F7148",
"<.	c #603719",
"[.	c #A57147",
"}.	c #694227",
"|.	c #C88A5A",
"1.	c #4C280F",
"2.	c #445D70",
"3.	c #627384",
"4.	c #617689",
"5.	c #5F758E",
"6.	c #5E7791",
"7.	c #121925",
"8.	c #452315",
"9.	c #A37145",
"0.	c #592E18",
"a.	c #A17047",
"b.	c #4A220F",
"c.	c #5E3518",
"d.	c #694228",
"e.	c #C7895A",
"f.	c #562A13",
"g.	c #7E5B3E",
"h.	c #5C788E",
"i.	c #60768D",
"j.	c #5C7591",
"k.	c #8F8F8F",
"l.	c #34404C",
"m.	c #343F4D",
"n.	c #6C472A",
"o.	c #452313",
"p.	c #9F7146",
"q.	c #A17245",
"r.	c #592D17",
"s.	c #4B2211",
"t.	c #61381C",
"u.	c #A67248",
"v.	c #674227",
"w.	c #542812",
"x.	c #9F6F47",
"y.	c #000001",
"z.	c #363F4D",
"A.	c #33414C",
"B.	c #182121",
"C.	c #030100",
"D.	c #60778D",
"E.	c #020005",
"F.	c #6F4A29",
"G.	c #482310",
"H.	c #A17145",
"I.	c #592D16",
"J.	c #4B2210",
"K.	c #9F7046",
"L.	c #C78859",
"M.	c #552914",
"N.	c #5C7890",
"O.	c #020000",
"P.	c #597793",
"Q.	c #070506",
"R.	c #5B758C",
"S.	c #6F492E",
"T.	c #482410",
"U.	c #61381A",
"V.	c #5A778E",
"W.	c #5B7890",
"X.	c #191818",
"Y.	c #734628",
"Z.	c #452210",
"`.	c #A37146",
" +	c #5A2E17",
".+	c #492211",
"++	c #60381C",
"@+	c #020303",
"#+	c #485B71",
"$+	c #4B5D70",
"%+	c #8A8F95",
"&+	c #7C8185",
"*+	c #8B8E93",
"=+	c #93969B",
"-+	c #8C8D92",
";+	c #8A8D92",
">+	c #989CA0",
",+	c #919499",
"'+	c #8B8E94",
")+	c #8B8E95",
"!+	c #96999E",
"~+	c #4A5D6E",
"{+	c #475B71",
"]+	c #000305",
"^+	c #465C73",
"/+	c #455D73",
"(+	c #000100",
"_+	c #000101",
":+	c #010001",
"<+	c #000002",
"[+	c #495C70",
"}+	c #495E71",
"|+	c #495C71",
"1+	c #5F768F",
"2+	c #5E778D",
"3+	c #5F768D",
"4+	c #724829",
"5+	c #462510",
"6+	c #5F3719",
"7+	c #552913",
"8+	c #60768C",
"9+	c #5E768D",
"0+	c #5F778C",
"a+	c #5C768F",
"b+	c #60381A",
"c+	c #CA8A58",
"d+	c #F9BB18",
"e+	c #C8A12F",
"f+	c #5D768F",
"g+	c #5B778E",
"h+	c #151414",
"i+	c #5E768F",
"j+	c #5E7790",
"k+	c #70492A",
"l+	c #5F3618",
"m+	c #BF992B",
"n+	c #36281A",
"o+	c #89713E",
"p+	c #5F7590",
"q+	c #6F4A28",
"r+	c #452410",
"s+	c #4B2310",
"t+	c #A47045",
"u+	c #C7895B",
"v+	c #542B0B",
"w+	c #485D72",
"x+	c #475D72",
"y+	c #010201",
"z+	c #4B5D6D",
"A+	c #A57046",
"B+	c #684328",
"C+	c #455A6D",
"D+	c #4A5A71",
"E+	c #000306",
"F+	c #080909",
"G+	c #465D6E",
"H+	c #475F6F",
"I+	c #714728",
"J+	c #462310",
"K+	c #A17044",
"L+	c #4A2211",
"M+	c #A37045",
"N+	c #684228",
"O+	c #4A5B71",
"P+	c #475E6F",
"Q+	c #455E73",
"R+	c #212524",
"S+	c #7289A1",
"T+	c #5B758E",
"U+	c #0E1015",
"V+	c #0E1011",
"W+	c #0E0F14",
"X+	c #0E1014",
"Y+	c #0E0F11",
"Z+	c #0F0E13",
"`+	c #0E1013",
" @	c #0E0E11",
".@	c #0E0F12",
"+@	c #0E1112",
"@@	c #0E1110",
"#@	c #0E0F13",
"$@	c #010205",
"%@	c #5C7792",
"&@	c #5B768C",
"*@	c #8B8F91",
"=@	c #8C8F94",
"-@	c #010207",
";@	c #0D1014",
">@	c #30424D",
",@	c #1B1B1B",
"'@	c #744728",
")@	c #472411",
"!@	c #9E7246",
"~@	c #C8895A",
"{@	c #562A15",
"]@	c #030005",
"^@	c #171415",
"/@	c #000201",
"(@	c #A17246",
"_@	c #5A2F16",
":@	c #4B5F72",
"<@	c #462311",
"[@	c #A07146",
"}@	c #A46F44",
"|@	c #592F15",
"1@	c #A17045",
"2@	c #492210",
"3@	c #A07048",
"4@	c #62361B",
"5@	c #A57044",
"6@	c #694128",
"7@	c #C88A56",
"8@	c #542B15",
"9@	c #373F4A",
"0@	c #4A5F74",
"a@	c #455E72",
"b@	c #0E0C0C",
"c@	c #181517",
"d@	c #020101",
"e@	c #060606",
"f@	c #100E10",
"g@	c #141314",
"  . + @ # $ % & * . + + = - % @ * @ + . # ; > , & ' + ) % ; ! , ",
". + ~ { > ] ^   . + + + > ] & @ / { { + > , ~ * + ~ + + ] , & * ",
"( ! _ & : < [ } | $ > ] 1 2 3 ~ ( $ 4 5 : 6 7 8 # _ > , } < 3 [ ",
"> ] ] & 3 | = # $ , & ^ 9 0 9 9 9 9 a ~ 1 | } # $ > ~ ^ ; 8 | ( ",
"] * . + = ; $ @ b c d e f g g h i j k l d m $ > , ^   + ! = ; > ",
". + + . $ % n o p q r s t u v w x y z A B q C D   . + + % ! > & ",
"+ + + + ] E F g G H I 9 J K L M N O q P Q R S g @ / + + & _ * . ",
"# $ % T U V W X N Y Z `  ...+.@.#.$.%.&.*.=.-.W W ;.>.] } _ [ } ",
"@ & * ,.'.).!.~.{.].^./.(._.(.:.<.(.[.}.(.|.1.2.,.3.4.. $ | ( ; ",
"^   + 5.q 6.7.8.{.9.0.a.(.b.(.:.c.(.[.d.(.e.f.g.h.i.j.k.$ ; $ % ",
"+ + + l.l.m.n.o.p.q.r.a.(.s.(.:.t.(.u.v.(.e.w.x.y.z.A.B.& % @ * ",
"] ] @ C.D.E.F.G.p.H.I.a.(.J.(.:.<.K.u.d.a.L.M.(.N._ O.P.> ; Q.% ",
"! % @ q q R.S.T./.9.r./.(.J.(.:.U.(.[.d.a.e.f.(.V.W.j.d # [ X.( ",
"] * @ ~ ~ ~ Y.Z.p.`. +a.(..+(.:.++(.u.}.a.e.f.(.f ~ ~ ~ @+= # ! ",
"  + @ S #+$+%+&+*+*+=+-+;+>+*+*+,+*+*+'+)+*+!+*+~+{+]+V ] ! @ & ",
". + @ ^+/+g (+_+:+@ y.<+y._+y.y._+y.y._+y.:+_+y.[+}+|+V ] ] * . ",
"# ; @ 1+2+3+4+5+p.9.r.a.(.s.K.:.6+(.u.d.a.e.7+(.8+9+3+0+| 2 [ | ",
"% ] @ a+q q S.G./.H.r.a.(._.(.:.b+(.u.d.a.c+d+e+f+q g+<+; } } h+",
"* . @ i+j+j+k+G./.q. +a.K.J.(.:.l+(.u.d.a.m+n+o+p+i+j+l , # $ , ",
"+ + @ g W g q+r+p.q.I.a.(.s+(.:.<.(.t+d.(.u+v+:.w+g g x+] % ] * ",
"Q.+ @ y+z+F q+r+p.q. +a.(.s+(.:.l+(.A+B+(.e.w.(.w+C+D+E+^ ^ . ~ ",
"$ % F+G+G+H+I+J+/.K+r.a.(.L+(.:.l+(.M+N+(.e.M.(.O+P+P+Q+= 8 8 @ ",
", * R+q S+T+U+V+W+X+Y+Z+`+ @.@W++@.@`+.@@@W+#@.@$@q q %@! = # ! ",
"  . [ &@q q *@*+*+*+*+*+*+;+*+*+;+*+*+*+*+*+*+=@-@q ;@>@% $ > ] ",
") @ ,@@ @ @ '@)@!@q. +a.(.s.(.:.l+(.u.v.(.~@{@(.]@@ @ ~   & @   ",
"^@0 } -./@L q+r+p.(@_@a.(.b.(.:.U.(.A+d.(.|.{@(.-.:@}+x+$ 1 ~ } ",
"@ , @ g g g q+<@[@}@|@p.1@2@1@3@4@1@5@6@K.7@8@1@9@w+0@a@$ | = ; ",
"^   + + # ; > , ^   + + = ; ! , b@* + . c@( $ % T * . ) ! # $ % ",
". + + + ! % & ~ . + + + $ % ] * + + ~ + $ ! & ^ ~ + + + & % ] & ",
") + ) + d@. ~ { @ . . ~ ! ~ . . )   / + ^ ^   ) e@Q.  + & ^     ",
"! > ] & _ [ @ ( @ % , ~ 1 @ | ( ; ! , ^ 2 [ | ( # ! f@& # 1 8 = ",
"] ^ @ . } @ g@> , & ' + } @ ; ! , &   . | = # @ % &   + $ ( ( ! "};
