/* XPM */
static char * iron_man2_xpm[] = {
"32 32 483 2",
"  	c #0B090A",
". 	c #0A0809",
"+ 	c #090708",
"@ 	c #000000",
"# 	c #161415",
"$ 	c #141213",
"% 	c #110F10",
"& 	c #0E0C0D",
"* 	c #0C0A0B",
"= 	c #181617",
"- 	c #141113",
"; 	c #151314",
"> 	c #121011",
", 	c #100E0F",
"' 	c #0A080A",
") 	c #080607",
"! 	c #131112",
"~ 	c #010000",
"{ 	c #080808",
"] 	c #0F0D0E",
"^ 	c #0D0B0C",
"/ 	c #1D1011",
"( 	c #BC2C3C",
"_ 	c #9F4B4E",
": 	c #171516",
"< 	c #020001",
"[ 	c #222021",
"} 	c #201E1F",
"| 	c #1C1A1B",
"1 	c #191718",
"2 	c #1A1819",
"3 	c #190D15",
"4 	c #3D0424",
"5 	c #B16F1D",
"6 	c #FDD341",
"7 	c #AC1128",
"8 	c #BC052D",
"9 	c #FEF291",
"0 	c #101010",
"a 	c #211F20",
"b 	c #030102",
"c 	c #1B191A",
"d 	c #1D1B1C",
"e 	c #191015",
"f 	c #D85D79",
"g 	c #A65924",
"h 	c #808F7B",
"i 	c #DEC766",
"j 	c #FDDC40",
"k 	c #CCCA91",
"l 	c #0E0000",
"m 	c #1E1C1D",
"n 	c #2C0328",
"o 	c #400528",
"p 	c #A9501B",
"q 	c #FAC737",
"r 	c #FDCA38",
"s 	c #FCC34A",
"t 	c #130708",
"u 	c #5F162A",
"v 	c #CE1130",
"w 	c #EC2C3C",
"x 	c #BD072E",
"y 	c #280320",
"z 	c #250223",
"A 	c #B60A31",
"B 	c #B6142B",
"C 	c #6F072B",
"D 	c #61071B",
"E 	c #E27483",
"F 	c #381426",
"G 	c #D0152F",
"H 	c #FE9CA5",
"I 	c #F62134",
"J 	c #F52237",
"K 	c #100023",
"L 	c #38062B",
"M 	c #3C0727",
"N 	c #BB173B",
"O 	c #A71D3C",
"P 	c #310429",
"Q 	c #320226",
"R 	c #0C0325",
"S 	c #8A1E38",
"T 	c #280423",
"U 	c #1C0126",
"V 	c #F82137",
"W 	c #D94558",
"X 	c #0E0C0E",
"Y 	c #1F1D1E",
"Z 	c #AB0C35",
"` 	c #730C29",
" .	c #911135",
"..	c #4C0327",
"+.	c #470529",
"@.	c #130027",
"#.	c #B80131",
"$.	c #EE263D",
"%.	c #F52738",
"&.	c #F82639",
"*.	c #FB2537",
"=.	c #FA2438",
"-.	c #C1103B",
";.	c #F01F39",
">.	c #F62437",
",.	c #F52634",
"'.	c #F22038",
").	c #300328",
"!.	c #440125",
"~.	c #B5143A",
"{.	c #270729",
"].	c #280627",
"^.	c #070328",
"/.	c #9B4927",
"(.	c #93482E",
"_.	c #08012A",
":.	c #480229",
"<.	c #B20535",
"[.	c #D2163C",
"}.	c #F62738",
"|.	c #FA2138",
"1.	c #77E3FE",
"2.	c #FEFCFA",
"3.	c #F2FEFE",
"4.	c #E71E3E",
"5.	c #F6263A",
"6.	c #D81C39",
"7.	c #180125",
"8.	c #270716",
"9.	c #380628",
"0.	c #62230A",
"a.	c #401714",
"b.	c #E5A52B",
"c.	c #FAB940",
"d.	c #AA5315",
"e.	c #290429",
"f.	c #83143B",
"g.	c #38072E",
"h.	c #2D042A",
"i.	c #930C32",
"j.	c #B30334",
"k.	c #B5002F",
"l.	c #BA022E",
"m.	c #BB002F",
"n.	c #B40432",
"o.	c #B60331",
"p.	c #170121",
"q.	c #5A2D29",
"r.	c #F29F39",
"s.	c #AA825B",
"t.	c #B76517",
"u.	c #87390B",
"v.	c #F8A72E",
"w.	c #C6741B",
"x.	c #0A0307",
"y.	c #3E0528",
"z.	c #240120",
"A.	c #B20231",
"B.	c #B50431",
"C.	c #0F0029",
"D.	c #0E022B",
"E.	c #2F0629",
"F.	c #4B0329",
"G.	c #4A0126",
"H.	c #260727",
"I.	c #160021",
"J.	c #AA0A36",
"K.	c #5F311F",
"L.	c #9C4B19",
"M.	c #FCAF2E",
"N.	c #B6052F",
"O.	c #DE192F",
"P.	c #DF3347",
"Q.	c #2F0C17",
"R.	c #64301B",
"S.	c #050505",
"T.	c #290627",
"U.	c #120128",
"V.	c #0D042A",
"W.	c #34042D",
"X.	c #59022B",
"Y.	c #B10331",
"Z.	c #B90231",
"`.	c #B30530",
" +	c #9F0633",
".+	c #0B0127",
"++	c #572E22",
"@+	c #5D2C1A",
"#+	c #180224",
"$+	c #FEA2A3",
"%+	c #070506",
"&+	c #8B1238",
"*+	c #AB0A33",
"=+	c #B10330",
"-+	c #D51833",
";+	c #270223",
">+	c #070217",
",+	c #210529",
"'+	c #2E042F",
")+	c #3B062F",
"!+	c #4C0229",
"~+	c #B30435",
"{+	c #B90232",
"]+	c #BC0132",
"^+	c #A2032E",
"/+	c #0A0025",
"(+	c #1C0F18",
"_+	c #2F0425",
":+	c #340120",
"<+	c #E0233A",
"[+	c #B1052C",
"}+	c #32061D",
"|+	c #191818",
"1+	c #3B092D",
"2+	c #B10531",
"3+	c #B4062C",
"4+	c #450124",
"5+	c #1C0D15",
"6+	c #380C29",
"7+	c #430527",
"8+	c #F35C6B",
"9+	c #C01331",
"0+	c #140026",
"a+	c #4B0325",
"b+	c #B5072C",
"c+	c #F02338",
"d+	c #F02136",
"e+	c #A40A2E",
"f+	c #1D0022",
"g+	c #4A0320",
"h+	c #3F052B",
"i+	c #35052D",
"j+	c #48021F",
"k+	c #B20632",
"l+	c #30030A",
"m+	c #020303",
"n+	c #380E27",
"o+	c #5F0124",
"p+	c #D6203F",
"q+	c #250424",
"r+	c #0E0C0C",
"s+	c #28092D",
"t+	c #0A0325",
"u+	c #110228",
"v+	c #26032A",
"w+	c #45052B",
"x+	c #A00E3D",
"y+	c #B30130",
"z+	c #CB0830",
"A+	c #C7082E",
"B+	c #B3062E",
"C+	c #46072A",
"D+	c #1C062D",
"E+	c #0D080A",
"F+	c #260023",
"G+	c #BF0E2C",
"H+	c #300624",
"I+	c #460528",
"J+	c #922140",
"K+	c #360528",
"L+	c #93143E",
"M+	c #C46471",
"N+	c #470423",
"O+	c #6B1836",
"P+	c #F4B24F",
"Q+	c #F3AA33",
"R+	c #0E0020",
"S+	c #2F0326",
"T+	c #500223",
"U+	c #930936",
"V+	c #950C33",
"W+	c #1F0223",
"X+	c #EF9B31",
"Y+	c #F1CB6F",
"Z+	c #784747",
"`+	c #150911",
" @	c #7A0E30",
".@	c #2C082F",
"+@	c #9F1036",
"@@	c #33091E",
"#@	c #B2062E",
"$@	c #9E062E",
"%@	c #A30A2C",
"&@	c #080329",
"*@	c #7A2A4D",
"=@	c #1F0318",
"-@	c #872144",
";@	c #850835",
">@	c #FCEF96",
",@	c #EDA126",
"'@	c #F7A036",
")@	c #301723",
"!@	c #3A062C",
"~@	c #2D0427",
"{@	c #2E192A",
"]@	c #6F3519",
"^@	c #F8A22B",
"/@	c #FCA62F",
"(@	c #EB9732",
"_@	c #B91C3C",
":@	c #06042A",
"<@	c #440121",
"[@	c #89183B",
"}@	c #151217",
"|@	c #0D0224",
"1@	c #3B0828",
"2@	c #CA273E",
"3@	c #510125",
"4@	c #530223",
"5@	c #E6A046",
"6@	c #FDF5B8",
"7@	c #F19E29",
"8@	c #F69F30",
"9@	c #5F2F20",
"0@	c #221614",
"a@	c #552E25",
"b@	c #5C2F1C",
"c@	c #A44F17",
"d@	c #F5A12A",
"e@	c #F69F26",
"f@	c #FDE990",
"g@	c #151414",
"h@	c #550C29",
"i@	c #210D14",
"j@	c #9B4D1D",
"k@	c #F1A034",
"l@	c #F5A02A",
"m@	c #F3A325",
"n@	c #F59F2B",
"o@	c #DF892A",
"p@	c #2C1508",
"q@	c #552D22",
"r@	c #944620",
"s@	c #A04E1D",
"t@	c #F6A029",
"u@	c #F59F28",
"v@	c #FAA42E",
"w@	c #100E10",
"x@	c #010101",
"y@	c #BB671F",
"z@	c #F09E2B",
"A@	c #F9A429",
"B@	c #F29B2A",
"C@	c #8F3F0E",
"D@	c #723820",
"E@	c #48291D",
"F@	c #59311F",
"G@	c #9F4D1D",
"H@	c #A24E1C",
"I@	c #A24F1B",
"J@	c #F09949",
"K@	c #874015",
"L@	c #0E0317",
"M@	c #0D0527",
"N@	c #2E0F10",
"O@	c #9D491B",
"P@	c #642D16",
"Q@	c #9C4F23",
"R@	c #A14B1C",
"S@	c #160020",
"T@	c #4F2920",
"U@	c #0C0C0C",
"V@	c #690327",
"W@	c #831325",
"X@	c #AC1232",
"Y@	c #420628",
"Z@	c #141314",
"`@	c #28111F",
" #	c #884125",
".#	c #35072A",
"+#	c #59061D",
"@#	c #3C0325",
"##	c #181818",
"$#	c #E41C38",
"%#	c #461430",
"&#	c #370226",
"*#	c #41032C",
"=#	c #370328",
"-#	c #060116",
";#	c #340527",
">#	c #39022A",
",#	c #42042A",
"'#	c #0C0225",
")#	c #3C0527",
"!#	c #580B24",
"~#	c #B30732",
"{#	c #6D0325",
"]#	c #3E032D",
"^#	c #200228",
"/#	c #1D0120",
"(#	c #41052D",
"_#	c #3D0529",
":#	c #3B022B",
"<#	c #3D022B",
"[#	c #210021",
"}#	c #3D032B",
"|#	c #180913",
"1#	c #25031D",
"2#	c #9C0531",
"3#	c #AC0430",
"4#	c #4E0029",
"5#	c #46012D",
"6#	c #240021",
"7#	c #2C081F",
"8#	c #2A0925",
"9#	c #3A0229",
"0#	c #3C022A",
"a#	c #1B0022",
"b#	c #3D0127",
"c#	c #1C0610",
"d#	c #171415",
"e#	c #020202",
"f#	c #201F20",
"g#	c #1F1C1D",
"h#	c #1B1819",
"i#	c #410329",
"j#	c #AF0631",
"k#	c #41022A",
"l#	c #280021",
"m#	c #130C0F",
"n#	c #212020",
"o#	c #0C0308",
"p#	c #3C0429",
"q#	c #39042A",
"r#	c #420327",
"s#	c #271018",
"t#	c #470122",
"u#	c #B00531",
"v#	c #30022C",
"w#	c #3B082E",
"x#	c #380329",
"y#	c #3F032C",
"z#	c #3A062B",
"A#	c #890C29",
"B#	c #774753",
"C#	c #400626",
"D#	c #BD183B",
"E#	c #B60A35",
"F#	c #340427",
"G#	c #300427",
"H#	c #38072F",
"I#	c #41022F",
"J#	c #450329",
"K#	c #1A0022",
"L#	c #27071C",
"M#	c #120125",
"N#	c #901338",
"O#	c #9E0F36",
"P#	c #27032B",
"Q#	c #2D082B",
"R#	c #170015",
"S#	c #3B032A",
"T#	c #130225",
"U#	c #0A0128",
"V#	c #38062A",
"W#	c #851A42",
"X#	c #BB022C",
"Y#	c #761D39",
"Z#	c #020101",
"`#	c #0D070B",
" $	c #B70E2D",
".$	c #EC1F36",
"+$	c #EC273B",
"@$	c #850D30",
"#$	c #0B0225",
"$$	c #1A0727",
"%$	c #2B0228",
"&$	c #220224",
"*$	c #040328",
"=$	c #31072E",
"-$	c #140123",
";$	c #3E0126",
">$	c #A90A35",
",$	c #AE082D",
"'$	c #B2102F",
")$	c #490F29",
"!$	c #1D0624",
"~$	c #430625",
"{$	c #290029",
"]$	c #2B0125",
"^$	c #3D0628",
"/$	c #181938",
"($	c #262932",
"  . + @ # $ % & * . + + = - % @ * @ + . # ; > , & ' + ) % ; ! , ",
". + ~ { > ] ^   . + + + > ] / ( _ { { + > , ~ * + ~ + + ] , & * ",
": ! < & [ } | 1 2 $ > ] 3 4 5 6 7 8 9 0 [ a b c # < > , 1 } d | ",
"> ] ] & d 2 = # $ , & ^ e f g h i j k l m 2 1 # $ > ~ ^ ; c 2 : ",
"] * . + = ; $ @ & * . + 1 n o p q r s t = : $ > , ^   + ! = ; > ",
". + + . $ % ] ^   u v w x y z A B C D E ; > % ^   . + + % ! > & ",
"+ + + + ] F G H I J K L M N O P Q z R S T U V W + + + + & < * . ",
"# $ % X Y Z `  ...+.@.#.$.%.&.*.=.-.;.>.,.'.).!.~.$ > ] 1 < | 1 ",
"@ & * @ 2 {.].^./.(._.:.<.[.}.|.1.2.3.4.5.6.7.8.9.] * . $ 2 : ; ",
"^   + @ # 0.a.b.c.d.e.f.g.h.i.j.k.l.m.n.o.p.q.r.s.  . + $ ; $ % ",
"+ + + @ ~ t.u.v.w.x.y.z.A.B.C.D.E.F.G.H.I.J.K.L.M.+ + + & % @ * ",
"] ] ] N.O.P.Q.R., ] S.T.U.V.W.X.Y.Z.`. +.+# ! ++@+#+$+  > ; %+% ",
"! % ] &+*+=+-+;+$ > ] >+,+'+)+!+~+{+]+^+/+c (+_+:+<+[+}+# | |+: ",
"] * + 1+2+3+4+5+, * 6+7+8+9+0+a+b+c+d+e+f+g+; h+i+j+k+l+m+= # ! ",
"  + + n+o+p+q+r+' . s+t+u+v+w+x+y+z+A+B+C+D+, & E+F+G+H+] ! @ & ",
". + + I+J+K+L+M+. + N+O+P+Q+R+S+T+U+V+W+X+Y+Z+. `+ @.@+@] ] * . ",
"# ; % @@#@$@%@&@*@=@-@;@>@,@'@)@!@~@{@]@^@/@(@2 _@:@<@[@2 Y | 2 ",
"% ] ^ * }@|@1@2@> 3@4@5@6@7@8@9@0@a@b@c@d@e@f@g@- h@i@  ; 1 1 g@",
"* . @ ) ; $ > ] @ j@k@l@m@n@o@p@^ q@r@s@t@u@v@, &   . + , # $ , ",
"+ + + + > w@x@  + y@z@A@B@C@D@* + E@F@G@H@I@J@* . + + + ] % ] * ",
"%++ + . @ * + + ) K@L@M@N@O@. ) + + P@Q@R@S@T@+ + + @ ) ^ ^ . ~ ",
"$ % ] U@@ d 1 # - V@W@X@Y@c 2 : Z@> `@ #.#+#@#: ; > @ ^ = c c @ ",
", * @ { ### $ $#%#&#*#=#-#: $ ! , ;#>#,#'#>#)#! % & * + ! = # ! ",
"  . ) + $ ! !#~#{#]#^#/#(#! , & @ _#:#<#[#}#|#@ * + . + % $ > ] ",
") @ + + , & 1#2#3#4#5#6#7#& < . @ 8#9#0#a#b#c#. + ) + +   & @   ",
"d#e#] ] f#g#h#i#j#k#l#m#n#m ~ = ~ ~ o#p#q#r#s#h#= $ Z@, $ m ~ 1 ",
"@ , @ . 1 : # t#u#v#w#  | |+: ; ! , & x#y#z#A#B#! , ~   $ 2 = ; ",
"^   + + # ; C#D#E#F#x#+ = ; ! , r+* + G#H#I#J#K#L#* . ) ! # $ % ",
". + + + ! % M#N#O#P#Q#+ $ % ] * + + R#S#T#U#V#W#X#Y#+ + & % ] & ",
") + ) + Z#`# $.$+$@$#$~ ! ~ . . )   $$%$&$*$=$-$;$>$,$'$)$^     ",
"! > ] & < !$~${$]$^$/$~ m @ 2 : ; ! , ^ Y | 2 ($# ! w@& # m c = ",
"] ^ @ . 1 @ Z@> , & ' + 1 @ ; ! , &   . 2 = # @ % &   + $ : : ! "};
