/* XPM */
static char * iron_man1_xpm[] = {
"32 32 482 2",
"  	c #0B090A",
". 	c #0A0809",
"+ 	c #090708",
"@ 	c #000000",
"# 	c #161415",
"$ 	c #141213",
"% 	c #110F10",
"& 	c #0E0C0D",
"* 	c #0C0A0B",
"= 	c #181617",
"- 	c #141113",
"; 	c #151314",
"> 	c #121011",
", 	c #100E0F",
"' 	c #0A080A",
") 	c #080607",
"! 	c #131112",
"~ 	c #010000",
"{ 	c #080808",
"] 	c #0F0D0E",
"^ 	c #0D0B0C",
"/ 	c #9E4A4D",
"( 	c #BC2C3D",
"_ 	c #171516",
": 	c #020001",
"< 	c #222021",
"[ 	c #201E1F",
"} 	c #1C1A1B",
"| 	c #191718",
"1 	c #1A1819",
"2 	c #1E1C1D",
"3 	c #FEF291",
"4 	c #BC052D",
"5 	c #AC1128",
"6 	c #FDD341",
"7 	c #B16F1D",
"8 	c #3D0424",
"9 	c #140610",
"0 	c #211F20",
"a 	c #030102",
"b 	c #1B191A",
"c 	c #1D1B1C",
"d 	c #CCCA91",
"e 	c #FDDC40",
"f 	c #DEC766",
"g 	c #808F7B",
"h 	c #A65924",
"i 	c #D85D79",
"j 	c #0E0007",
"k 	c #FCC34A",
"l 	c #FDCA38",
"m 	c #FAC737",
"n 	c #A9501B",
"o 	c #400528",
"p 	c #2C0328",
"q 	c #E27483",
"r 	c #61071B",
"s 	c #6F072B",
"t 	c #B6142B",
"u 	c #B60A31",
"v 	c #250223",
"w 	c #280320",
"x 	c #BD072E",
"y 	c #EC2C3C",
"z 	c #CE1130",
"A 	c #5F182B",
"B 	c #D94558",
"C 	c #F82137",
"D 	c #1C0126",
"E 	c #280423",
"F 	c #8A1E38",
"G 	c #0C0325",
"H 	c #320226",
"I 	c #310429",
"J 	c #A71D3C",
"K 	c #BB173B",
"L 	c #3C0727",
"M 	c #38062B",
"N 	c #100023",
"O 	c #F52237",
"P 	c #F62134",
"Q 	c #FE9CA5",
"R 	c #D0152F",
"S 	c #371225",
"T 	c #0E0C0E",
"U 	c #1F1D1E",
"V 	c #B5143A",
"W 	c #440125",
"X 	c #300328",
"Y 	c #F22038",
"Z 	c #F52634",
"` 	c #F62437",
" .	c #F01F39",
"..	c #C1103B",
"+.	c #FA2438",
"@.	c #FB2537",
"#.	c #F82639",
"$.	c #F52738",
"%.	c #EE263D",
"&.	c #B80131",
"*.	c #130027",
"=.	c #470529",
"-.	c #4C0327",
";.	c #911135",
">.	c #730C29",
",.	c #AB0C35",
"'.	c #380628",
").	c #270716",
"!.	c #180125",
"~.	c #D81C39",
"{.	c #F6263A",
"].	c #E71E3E",
"^.	c #F2FEFE",
"/.	c #FEFCFA",
"(.	c #77E3FE",
"_.	c #FA2138",
":.	c #F62738",
"<.	c #D2163C",
"[.	c #B20535",
"}.	c #480229",
"|.	c #08012A",
"1.	c #93482E",
"2.	c #9B4927",
"3.	c #070328",
"4.	c #280627",
"5.	c #270729",
"6.	c #AA825B",
"7.	c #F29F39",
"8.	c #5A2D29",
"9.	c #170121",
"0.	c #B60331",
"a.	c #B40432",
"b.	c #BB002F",
"c.	c #BA022E",
"d.	c #B5002F",
"e.	c #B30334",
"f.	c #930C32",
"g.	c #2D042A",
"h.	c #38072E",
"i.	c #83143B",
"j.	c #290429",
"k.	c #AA5315",
"l.	c #FAB940",
"m.	c #E5A52B",
"n.	c #401714",
"o.	c #62230A",
"p.	c #FCAF2E",
"q.	c #9C4B19",
"r.	c #5F311F",
"s.	c #AA0A36",
"t.	c #160021",
"u.	c #260727",
"v.	c #4A0126",
"w.	c #4B0329",
"x.	c #2F0629",
"y.	c #0E022B",
"z.	c #0F0029",
"A.	c #B50431",
"B.	c #B20231",
"C.	c #240120",
"D.	c #3E0528",
"E.	c #0C060A",
"F.	c #C6741B",
"G.	c #F8A72E",
"H.	c #87390B",
"I.	c #B76517",
"J.	c #050505",
"K.	c #060405",
"L.	c #FEA2A3",
"M.	c #180224",
"N.	c #5D2C1A",
"O.	c #572E22",
"P.	c #0B0127",
"Q.	c #9F0633",
"R.	c #B30530",
"S.	c #B90231",
"T.	c #B10331",
"U.	c #59022B",
"V.	c #34042D",
"W.	c #0D042A",
"X.	c #120128",
"Y.	c #290627",
"Z.	c #100E10",
"`.	c #64301B",
" +	c #2F0C17",
".+	c #DF3347",
"++	c #DE192F",
"@+	c #B6052F",
"#+	c #070506",
"$+	c #330C20",
"%+	c #B1052C",
"&+	c #E0233A",
"*+	c #340120",
"=+	c #2F0425",
"-+	c #190A15",
";+	c #0A0025",
">+	c #A2032E",
",+	c #BC0132",
"'+	c #B90232",
")+	c #B30435",
"!+	c #4C0229",
"~+	c #3B062F",
"{+	c #2E042F",
"]+	c #210529",
"^+	c #090417",
"/+	c #270223",
"(+	c #D51833",
"_+	c #B10330",
":+	c #AB0A33",
"<+	c #8B1238",
"[+	c #191818",
"}+	c #330B11",
"|+	c #B20632",
"1+	c #48021F",
"2+	c #35052D",
"3+	c #3F052B",
"4+	c #4A0320",
"5+	c #1D0022",
"6+	c #A40A2E",
"7+	c #F02136",
"8+	c #F02338",
"9+	c #B5072C",
"0+	c #4B0325",
"a+	c #140026",
"b+	c #C01331",
"c+	c #F35C6B",
"d+	c #430527",
"e+	c #380C29",
"f+	c #1C0B14",
"g+	c #450124",
"h+	c #B4062C",
"i+	c #B10531",
"j+	c #3B092D",
"k+	c #300624",
"l+	c #BF0E2C",
"m+	c #260023",
"n+	c #0F0B0C",
"o+	c #1C062D",
"p+	c #46072A",
"q+	c #B3062E",
"r+	c #C7082E",
"s+	c #CB0830",
"t+	c #B30130",
"u+	c #A00E3D",
"v+	c #45052B",
"w+	c #26032A",
"x+	c #110228",
"y+	c #0A0325",
"z+	c #28092D",
"A+	c #250424",
"B+	c #D6203F",
"C+	c #5F0124",
"D+	c #380E27",
"E+	c #9F1036",
"F+	c #2C082F",
"G+	c #7A0E30",
"H+	c #160A11",
"I+	c #784847",
"J+	c #F1CB6F",
"K+	c #EF9B31",
"L+	c #1F0223",
"M+	c #950C33",
"N+	c #930936",
"O+	c #500223",
"P+	c #2F0326",
"Q+	c #0E0020",
"R+	c #F3AA33",
"S+	c #F4B24F",
"T+	c #6B1836",
"U+	c #470423",
"V+	c #C46471",
"W+	c #93143E",
"X+	c #360528",
"Y+	c #922140",
"Z+	c #460528",
"`+	c #89183B",
" @	c #440121",
".@	c #06042A",
"+@	c #B91C3C",
"@@	c #EB9732",
"#@	c #FCA62F",
"$@	c #F8A22B",
"%@	c #6F3519",
"&@	c #2E192A",
"*@	c #2D0427",
"=@	c #3A062C",
"-@	c #301723",
";@	c #F7A036",
">@	c #EDA126",
",@	c #FCEF96",
"'@	c #850835",
")@	c #872144",
"!@	c #1F0318",
"~@	c #7A2A4D",
"{@	c #080329",
"]@	c #A30A2C",
"^@	c #9E062E",
"/@	c #B2062E",
"(@	c #340F21",
"_@	c #27171B",
":@	c #550C29",
"<@	c #141314",
"[@	c #FDE990",
"}@	c #F69F26",
"|@	c #F5A12A",
"1@	c #A44F17",
"2@	c #5C2F1C",
"3@	c #552E25",
"4@	c #231816",
"5@	c #5F2F20",
"6@	c #F69F30",
"7@	c #F19E29",
"8@	c #FDF5B8",
"9@	c #E6A046",
"0@	c #530223",
"a@	c #510125",
"b@	c #151414",
"c@	c #CA273E",
"d@	c #3B0828",
"e@	c #0D0224",
"f@	c #09060D",
"g@	c #FAA42E",
"h@	c #F59F28",
"i@	c #F6A029",
"j@	c #A04E1D",
"k@	c #944620",
"l@	c #552D22",
"m@	c #2F1A11",
"n@	c #DF892A",
"o@	c #F59F2B",
"p@	c #F3A325",
"q@	c #F5A02A",
"r@	c #F1A034",
"s@	c #9B4D1D",
"t@	c #010101",
"u@	c #F09949",
"v@	c #A24F1B",
"w@	c #A24E1C",
"x@	c #9F4D1D",
"y@	c #59311F",
"z@	c #492A1E",
"A@	c #723820",
"B@	c #8F3F0E",
"C@	c #F29B2A",
"D@	c #F9A429",
"E@	c #F09E2B",
"F@	c #BB671F",
"G@	c #4F2920",
"H@	c #160020",
"I@	c #A14B1C",
"J@	c #9C4F23",
"K@	c #642D16",
"L@	c #9D491B",
"M@	c #2E0F10",
"N@	c #0D0527",
"O@	c #0E0317",
"P@	c #874015",
"Q@	c #0C0C0C",
"R@	c #3C0325",
"S@	c #59061D",
"T@	c #35072A",
"U@	c #884125",
"V@	c #28111F",
"W@	c #420628",
"X@	c #AC1232",
"Y@	c #831325",
"Z@	c #690327",
"`@	c #171416",
" #	c #181818",
".#	c #3C0527",
"+#	c #39022A",
"@#	c #0C0225",
"##	c #42042A",
"$#	c #340527",
"%#	c #070216",
"&#	c #370328",
"*#	c #41032C",
"=#	c #370226",
"-#	c #461430",
";#	c #E41C38",
">#	c #0E0C0C",
",#	c #160410",
"'#	c #3D032B",
")#	c #210021",
"!#	c #3D022B",
"~#	c #3B022B",
"{#	c #3D0529",
"]#	c #41052D",
"^#	c #1D0120",
"/#	c #200228",
"(#	c #3E032D",
"_#	c #6D0325",
":#	c #B30732",
"<#	c #580B24",
"[#	c #19010B",
"}#	c #3D0127",
"|#	c #1B0022",
"1#	c #3C022A",
"2#	c #3A0229",
"3#	c #2A0925",
"4#	c #2B061E",
"5#	c #240021",
"6#	c #46012D",
"7#	c #4E0029",
"8#	c #AC0430",
"9#	c #9C0531",
"0#	c #25021D",
"a#	c #171415",
"b#	c #020202",
"c#	c #201F20",
"d#	c #1F1C1D",
"e#	c #1B1819",
"f#	c #181718",
"g#	c #20000C",
"h#	c #420327",
"i#	c #39042A",
"j#	c #3C0429",
"k#	c #0F070C",
"l#	c #111010",
"m#	c #1F1C1E",
"n#	c #280021",
"o#	c #41022A",
"p#	c #AF0631",
"q#	c #410329",
"r#	c #774753",
"s#	c #890C29",
"t#	c #3A062B",
"u#	c #3F032C",
"v#	c #380329",
"w#	c #3B082E",
"x#	c #30022C",
"y#	c #B00531",
"z#	c #470122",
"A#	c #27071C",
"B#	c #1A0022",
"C#	c #450329",
"D#	c #41022F",
"E#	c #38072F",
"F#	c #300427",
"G#	c #181517",
"H#	c #340427",
"I#	c #B60A35",
"J#	c #BD183B",
"K#	c #400626",
"L#	c #761D39",
"M#	c #BB022C",
"N#	c #851A42",
"O#	c #38062A",
"P#	c #0A0128",
"Q#	c #130225",
"R#	c #3B032A",
"S#	c #180216",
"T#	c #2D082B",
"U#	c #27032B",
"V#	c #9E0F36",
"W#	c #901338",
"X#	c #120125",
"Y#	c #490E29",
"Z#	c #B2102F",
"`#	c #AE082D",
" $	c #A90A35",
".$	c #3E0126",
"+$	c #140123",
"@$	c #31072E",
"#$	c #040328",
"$$	c #220224",
"%$	c #2B0228",
"&$	c #1A0727",
"*$	c #090909",
"=$	c #0B0225",
"-$	c #850D30",
";$	c #EC273B",
">$	c #EC1F36",
",$	c #B70E2D",
"'$	c #0E080B",
")$	c #1E232C",
"!$	c #181938",
"~$	c #3D0628",
"{$	c #2B0125",
"]$	c #290029",
"^$	c #430625",
"/$	c #1D0624",
"  . + @ # $ % & * . + + = - % @ * @ + . # ; > , & ' + ) % ; ! , ",
". + ~ { > ] ^   . + + + > ] & / ( { { + > , ~ * + ~ + + ] , & * ",
"_ ! : & < [ } | 1 $ > ] 2 3 4 5 6 7 8 9 < 0 a b # : > , | [ c } ",
"> ] ] & c 1 = # $ , & ^ [ d e f g h i j 2 1 | # $ > ~ ^ ; b 1 _ ",
"] * . + = ; $ @ & * . + | k l m n o p + = _ $ > , ^   + ! = ; > ",
". + + . $ % ] ^   . + ) q r s t u v w x y z A ^   . + + % ! > & ",
"+ + + + ] ^ . + B C D E F G v H I J K L M N O P Q R S + & : * . ",
"# $ % T U c } V W X Y Z `  ...+.@.#.$.%.&.*.=.-.;.>.,.] | : } | ",
"@ & * @ 1 = @ '.).!.~.{.].^./.(._.:.<.[.}.|.1.2.3.4.5.. $ 1 _ ; ",
"^   + @ # $ @ 6.7.8.9.0.a.b.c.d.e.f.g.h.i.j.k.l.m.n.o.+ $ ; $ % ",
"+ + + @ ~ ] ^ p.q.r.s.t.u.v.w.x.y.z.A.B.C.D.E.F.G.H.I.+ & % @ * ",
"] ] ] J.K.L.M.N.O.] J.P.Q.R.S.T.U.V.W.X.Y.# ! Z.`. +.+++@+; #+% ",
"! % ] ^ $+%+&+*+=+-+] ;+>+,+'+)+!+~+{+]+^+b | _ /+(+_+:+<+} [+_ ",
"] * + + }+|+1+2+3+* 4+5+6+7+8+9+0+a+b+c+d+e+; ! f+g+h+i+j+= # ! ",
"  + + + k+l+m+n+' . o+p+q+r+s+t+u+v+w+x+y+z+, &   A+B+C+D+! @ & ",
". + + + E+F+G+H+. I+J+K+L+M+N+O+P+Q+R+S+T+U+~ . V+W+X+Y+Z+] * . ",
"# ; % & `+ @.@+@# @@#@$@%@&@*@=@-@;@>@,@'@)@!@~@{@]@^@/@(@U } 1 ",
"% ] ^ * 1 _@:@<@> [@}@|@1@2@3@4@5@6@7@8@9@0@a@b@c@d@e@f@; | | b@",
"* . @ ) ; $ > ] @ g@h@i@j@k@l@@ m@n@o@p@q@r@s@, &   . + , # $ , ",
"+ + + + > Z.t@  + u@v@w@x@y@z@* + A@B@C@D@E@F@* . + + + ] % ] * ",
"#++ + . @ * + + ) G@H@I@J@K@. ) + + L@M@N@O@P@+ + + @ ) ^ ^ . ~ ",
"$ % ] Q@@ c | # $ R@S@T@U@V@1 _ <@> ] W@X@Y@Z@`@; > @ ^ = b b @ ",
", * @ {  ## $ @ ] .#+#@###+#$#! , &   %#&#*#=#-#;#& * + ! = # ! ",
"  . ) + $ ! ] >#@ ,#'#)#!#~#{#& @ + + ]#^#/#(#_#:#<#. + % $ > ] ",
") @ + + , & .   . [#}#|#1#2#3#. @ @ + 4#5#6#7#8#9#0#+ +   & @   ",
"a#b#] ] c#d#e#f#a#g#h#i#j#k#~ = ~ ~ l#] m#n#o#p#q#$ <@, $ 2 ~ | ",
"@ , @ . | _ # $ r#s#t#u#v#[+_ ; ! , & . } w#x#y#z#, ~   $ 1 = ; ",
"^   + + # ; > A#B#C#D#E#F#; ! , >#* + . G#v#H#I#J#K#. ) ! # $ % ",
". + + + ! % L#M#N#O#P#Q#R#S#] * + + ~ + $ T#U#V#W#X#+ + & % ] & ",
") + ) Y#Z#`# $.$+$@$#$$$%$&$. . )   *$+ ^ =$-$;$>$,$'$+ & ^     ",
"! > ] & : } @ _ )$% , ~ 2 @ 1 _ ; ! , ^ U !$~${$]$^$/$& # 2 b = ",
"] ^ @ . | @ <@> , & ' + | @ ; ! , &   . 1 = # @ % &   + $ _ _ ! "};
