/* XPM */
static char *_2a3d2dbba064666d9fbfcdfc964ec9bZ6y0N8Na7ijThn2l[] = {
/* columns rows colors chars-per-pixel */
"32 32 168 2 ",
"   c None",
".  c #0A0006",
"X  c #14000C",
"o  c #070217",
"O  c #0E0317",
"+  c #160010",
"@  c #190017",
"#  c #1F0418",
"$  c #3D000B",
"%  c #2F0E14",
"&  c #29071A",
"*  c #28111F",
"=  c #0C0225",
"-  c #060329",
";  c #0B022A",
":  c #140123",
">  c #1B0224",
",  c #120228",
"<  c #1C062D",
"1  c #181938",
"2  c #250223",
"3  c #2B0324",
"4  c #240429",
"5  c #2C032A",
"6  c #2B082D",
"7  c #2A0925",
"8  c #330425",
"9  c #3D0426",
"0  c #3B0B26",
"q  c #33042B",
"w  c #3B042B",
"e  c #3B092B",
"r  c #2E192A",
"t  c #301723",
"y  c #48021F",
"u  c #59061D",
"i  c #401714",
"p  c #61071B",
"a  c #5D2E1B",
"s  c #5C311F",
"d  c #62230A",
"f  c #642D16",
"g  c #6A331A",
"h  c #440324",
"j  c #4B0325",
"k  c #43042A",
"l  c #4B0229",
"z  c #4C0F2B",
"x  c #510224",
"c  c #590727",
"v  c #461430",
"b  c #6B0326",
"n  c #6F072B",
"m  c #730C29",
"M  c #7A0E30",
"N  c #6B1836",
"B  c #751C36",
"V  c #562E23",
"C  c #5F2F20",
"Z  c #5A2D29",
"A  c #5D3126",
"S  c #723820",
"D  c #7A2A4D",
"F  c #3E4656",
"G  c #475563",
"H  c #4A5665",
"J  c #4C5966",
"K  c #4C5868",
"L  c #8F3F0E",
"P  c #87390B",
"I  c #890C29",
"U  c #9E062E",
"Y  c #831325",
"T  c #850B33",
"R  c #9E0632",
"E  c #940B34",
"W  c #9E0F36",
"Q  c #8A1B3A",
"!  c #87133A",
"~  c #9F1036",
"^  c #92143B",
"/  c #911135",
"(  c #A40A2D",
")  c #A8062E",
"_  c #B4052D",
"`  c #BB032E",
"'  c #BB0E2D",
"]  c #AC1128",
"[  c #B4122D",
"{  c #AE0531",
"}  c #AA0B35",
"|  c #A00E3D",
" . c #B30432",
".. c #BA0232",
"X. c #B60A33",
"o. c #AA1837",
"O. c #BB1A3C",
"+. c #B8163B",
"@. c #C7082E",
"#. c #DE192F",
"$. c #D0152F",
"%. c #CB0830",
"&. c #CE1130",
"*. c #C11236",
"=. c #D51938",
"-. c #E61D3B",
";. c #EC1F36",
":. c #F01F39",
">. c #CA273E",
",. c #D6203F",
"<. c #ED273C",
"1. c #E6283B",
"2. c #F42336",
"3. c #FA2337",
"4. c #F42538",
"5. c #F92438",
"6. c #874015",
"7. c #9D4C1C",
"8. c #A14E1C",
"9. c #A44F17",
"0. c #AA5218",
"q. c #B6691C",
"w. c #884125",
"e. c #9C4C25",
"r. c #944727",
"t. c #A65924",
"y. c #C6741B",
"u. c #851A42",
"i. c #872144",
"p. c #922140",
"a. c #D83346",
"s. c #935958",
"d. c #955968",
"f. c #D94558",
"g. c #D85D79",
"h. c #F35C6B",
"j. c #CE6977",
"k. c #DF892A",
"l. c #F39E2A",
"z. c #F69F26",
"x. c #ED9932",
"c. c #F69F30",
"v. c #F29F39",
"b. c #E9A329",
"n. c #F5A02A",
"m. c #F9A52D",
"M. c #F8A92A",
"N. c #F4A035",
"B. c #F3AA33",
"V. c #FCC938",
"C. c #AA825B",
"Z. c #808F7B",
"A. c #F09949",
"S. c #E6A046",
"D. c #F7B648",
"F. c #FCC34A",
"G. c #FDD841",
"H. c #DEC766",
"J. c #F1CB6F",
"K. c #E27483",
"L. c #77E3FE",
"P. c #FE9CA5",
"I. c #FEA2A3",
"U. c #CCCA91",
"Y. c #FDEC93",
"T. c #FEF291",
"R. c #FDF5B8",
"E. c #F8FDFC",
/* pixels */
"                                                                ",
"                              a.                                ",
"                        + 9 q.G.] ` T.                          ",
"                        X g.t.Z.H.G.U.                          ",
"                          5 k 0.V.V.F.                          ",
"                  B &.<.` 2 2 X.[ n p K.                        ",
"            $.P.2.2.: w 9 O.o.q 8 2 = Q 3 > 3.f.                ",
"          } m / l k , ..<.4.5.3.5.*.:.2.2.4.q h +.              ",
"          4 7 - e.r.; l  .=.4.3.L.E.E.-.4.=.> & w               ",
"          d i b.D.0.5 ! e 5 E  ._ ` `  . .: Z v.C.              ",
"          q.P m.y.. 9 2  . .; ; 5 l j 2 : } s 7.M.              ",
"       .#.a.% f       7 , ; q c  ... .R =     V a > I.          ",
"      ! }  .=.2       o 4 6 e l  .....) =   # 5 8 1._ 8         ",
"      e  ._ h       e k h.*.: j _ 4.2.( > j   9 q y  .$         ",
"      0 c ,.2       6 = , 4 k |  .%.@._ k <       2 ' 8         ",
"      k p.q ^ j.    h N D.B.= 5 x E E > x.J.s.    M 6 ~         ",
"      0 _ U ( ; D # i.T Y.b.N.t e 5 r g n.m.x.  O.- h Q         ",
"          = e >.  x x S.R.l.c.C   V a 9.n.z.Y.    c             ",
"                  7.N.n.n.l.k.    V r.8.n.l.m.                  ",
"                  q.l.m.l.L S       s 7.8.8.A.                  ",
"                  6.O = % 7.        f e.8.: A                   ",
"                  b Y o.k           * w.q u 9                   ",
"              -.v 8 k w o         8 w k = w 9                   ",
"            c  .b w 4 > k         9 w w 2 w                     ",
"            2 R { l k 2 8         7 w w > 9                     ",
"              k { k 2               . 9 w h                     ",
"              h  .q e                 w w w I d.                ",
"            k O.X.8 w                 8 e k k > &               ",
"            , ^ W 4 6               @ w , ; w u.` B             ",
"            ' ;.<.T = G G K G G K K > 5 2 - q : 9 } { [ z       ",
"          > k 5 3 9 1 K K K J J J J K J J J J F                 ",
"                                                                "
};
