/* XPM */
static char *_b1a690d6a3347d8f7ff0fcdc1325354LiPFo8oeK2mU9MiB[] = {
/* columns rows colors chars-per-pixel */
"32 32 39 1 ",
"  c #050703",
". c #050704",
"X c #060803",
"o c #060806",
"O c #080807",
"+ c #070908",
"@ c #080909",
"# c #0B080D",
"$ c #0C080D",
"% c #200A2B",
"& c #210A2C",
"* c #250B30",
"= c #270B35",
"- c #290B36",
"; c #290C37",
": c #2A0B38",
"> c #2B0D39",
", c #2C0C3A",
"< c #2E0B3D",
"1 c #2F0C3D",
"2 c #300C3F",
"3 c #310E42",
"4 c #330E44",
"5 c #350E47",
"6 c #370E4A",
"7 c #380E4B",
"8 c #3A0F4E",
"9 c #39104B",
"0 c #3A104D",
"q c #3E1054",
"w c #401056",
"e c #46135E",
"r c #471261",
"t c #491261",
"y c #4A1164",
"u c #4C1365",
"i c #50156A",
"p c #591975",
"a c #5B1979",
/* pixels */
"@oooo.o@o.XooooooXXoXooo@oooX..@",
"ortrptw@pttppr08attttp81@tprttt@",
"orrttt3@pt00tr00ar00tt81@ptt008@",
"oq04441@78643331eqqq8431@843341@",
"@@@@@@@@@@@@@@@@@@@@@@@@@@@@@@@@",
"optttppptrp5pptpttttopppppttapp@",
"ot71ptq08t0,r8tt0001ot000t01utt@",
"o001t881101:00008111o0100801t88@",
"O111,111111:,1111111o11111111<1@",
"oppppp0@pppittptytppttt2@pptttt+",
"otr0tt4@pttupt00apttt081@pttpr0@",
"o800073@tt,100,1t8800111@008800@",
"o,,,>,,@,,,,,,,11,>,,,,1@,>,,,,@",
"@oooo. oooooo. X..ooO. .ooooo..@",
"ort0ptrtrtt5ptttttt8ortr0001arp@",
"or00pt00000>pt000001otr00181ytt@",
"O,,1>,,11,1>>>,,,,,1o>>,11,11>,@",
"@@@@@@@@@@@@@@@@@@@@@@@@@@@@@@@@",
"otppptw@tppppt00appptt88@tppptt@",
"ot00003@rtt00101tr008001@ttt080@",
"o081001@0880111180100111@t80001@",
"O-;;;;;@---------;--;---@---=;-@",
"Optttpppttt>ttpppptt ppppp00apt@",
"ort1pttttt0>pttttt00oprttt01atp@",
"o0019031111>t0011011o0800111t00@",
"O,,,,,,,111,,,,,1111O>>,,,11<,,@",
"@#$##@@@###$@@@@$$###@@@@@#$#$@@",
"otrttt3@pttrtt81atttrt01@ptt08t@",
"ort0tt3@ttt80011yt800801@t88000@",
"o1,,,,,@,,,,,11111111111@,1,,,1@",
"@&&%,*&@%%,,%%%&&%,%%%%&@&>,,&&@",
"@@@@@@@@@@@@@@@@@@@@@@@@@@@@@@@@"
};
